<?xml version="1.0" encoding="utf-8"?>
<!-- Generator: Adobe Illustrator 26.3.1, SVG Export Plug-In . SVG Version: 6.00 Build 0)  -->
<svg version="1.1" id="Calque_1" xmlns="http://www.w3.org/2000/svg" xmlns:xlink="http://www.w3.org/1999/xlink" x="0px" y="0px"
	 viewBox="0 0 1439 108.1" style="enable-background:new 0 0 1439 108.1;" xml:space="preserve">
<style type="text/css">
	.st0{fill:#005E4E;}
</style>
<g>
	<path class="st0" d="M108.4,52.5c-30.5,0-55.3,24.9-55.4,55.6h-0.4c0-29.9-23.3-54.2-52.7-55.6C1.7,23.2,25.8,0,55.3,0
		c29.5,0,53.7,23.3,55.3,52.6C109.9,52.6,109.2,52.5,108.4,52.5z"/>
	<path class="st0" d="M219.1,52.5c-30.5,0-55.3,24.9-55.4,55.6h-0.4c0-29.9-23.3-54.2-52.7-55.6C112.4,23.2,136.5,0,166,0
		s53.7,23.3,55.3,52.6C220.6,52.6,219.9,52.5,219.1,52.5z"/>
	<path class="st0" d="M329.9,52.5c-30.5,0-55.3,24.9-55.4,55.6h-0.4c0-29.9-23.3-54.2-52.7-55.6C223.1,23.2,247.2,0,276.7,0
		c29.5,0,53.7,23.3,55.3,52.6C331.3,52.6,330.6,52.5,329.9,52.5z"/>
	<path class="st0" d="M440.6,52.5c-30.5,0-55.3,24.9-55.4,55.6h-0.4c0-29.9-23.3-54.2-52.7-55.6C333.8,23.2,357.9,0,387.4,0
		c29.5,0,53.7,23.3,55.3,52.6C442,52.6,441.3,52.5,440.6,52.5z"/>
	<path class="st0" d="M551.3,52.5c-30.5,0-55.3,24.9-55.4,55.6h-0.4c0-29.9-23.3-54.2-52.7-55.6C444.6,23.2,468.6,0,498.2,0
		c29.5,0,53.7,23.3,55.3,52.6C552.7,52.6,552,52.5,551.3,52.5z"/>
	<path class="st0" d="M662.9,52.5c-30.5,0-55.3,24.9-55.4,55.6h-0.4c0-29.9-23.3-54.2-52.7-55.6C556.1,23.2,580.2,0,609.7,0
		c29.5,0,53.7,23.3,55.3,52.6C664.3,52.6,663.6,52.5,662.9,52.5z"/>
	<path class="st0" d="M773.6,52.5c-30.5,0-55.3,24.9-55.4,55.6h-0.4c0-29.9-23.3-54.2-52.7-55.6C666.8,23.2,690.9,0,720.4,0
		c29.5,0,53.7,23.3,55.3,52.6C775,52.6,774.3,52.5,773.6,52.5z"/>
	<path class="st0" d="M883.8,52.5c-30.5,0-55.3,24.9-55.4,55.6H828c0-29.9-23.3-54.2-52.7-55.6C777.1,23.2,801.1,0,830.7,0
		s53.7,23.3,55.3,52.6C885.2,52.6,884.6,52.5,883.8,52.5z"/>
	<path class="st0" d="M1104.7,52.5c-30.5,0-55.3,24.9-55.4,55.6h-0.4c0-29.9-23.3-54.2-52.7-55.6C997.9,23.2,1022,0,1051.5,0
		c29.5,0,53.7,23.3,55.3,52.6C1106.1,52.6,1105.4,52.5,1104.7,52.5z"/>
	<path class="st0" d="M1215.4,52.5c-30.5,0-55.3,24.9-55.4,55.6h-0.4c0-29.9-23.3-54.2-52.7-55.6c1.7-29.3,25.8-52.5,55.3-52.5
		c29.5,0,53.7,23.3,55.3,52.6C1216.8,52.6,1216.1,52.5,1215.4,52.5z"/>
	<path class="st0" d="M1326.1,52.5c-30.5,0-55.3,24.9-55.4,55.6h-0.4c0-29.9-23.3-54.2-52.7-55.6C1219.4,23.2,1243.5,0,1273,0
		c29.5,0,53.7,23.3,55.3,52.6C1327.6,52.6,1326.9,52.5,1326.1,52.5z"/>
	<path class="st0" d="M1436.8,52.5c-30.5,0-55.3,24.9-55.4,55.6h-0.4c0-29.9-23.3-54.2-52.7-55.6c1.7-29.3,25.8-52.5,55.3-52.5
		c29.5,0,53.7,23.3,55.3,52.6C1438.3,52.6,1437.6,52.5,1436.8,52.5z"/>
	<path class="st0" d="M994,52.5c-30.5,0-55.3,24.9-55.4,55.6h-0.4c0-29.9-23.3-54.2-52.7-55.6C887.3,23.2,911.3,0,940.9,0
		c29.5,0,53.7,23.3,55.3,52.6C995.4,52.6,994.7,52.5,994,52.5z"/>
</g>
</svg>
