<?xml version="1.0" encoding="utf-8"?>
<!-- Generator: Adobe Illustrator 26.3.1, SVG Export Plug-In . SVG Version: 6.00 Build 0)  -->
<svg version="1.1" id="Calque_1" xmlns="http://www.w3.org/2000/svg" xmlns:xlink="http://www.w3.org/1999/xlink" x="0px" y="0px"
	 viewBox="0 0 4326.5 1776" style="enable-background:new 0 0 4326.5 1776;" xml:space="preserve">
<style type="text/css">
	.st0{fill:#FFFFFF;stroke:#000000;stroke-width:60;stroke-miterlimit:10;}
	.st1{fill:#FFFFFF;}
</style>
<g>
	<path class="st0" d="M3592.5,828c-296.2-486.3-819.3-423.4-975.8-410C2436,171.3,2044.3-77.2,1424.6,78.3
		C1061,169.6,884.5,418,872.8,743.7c-356.3-227.7-793.7,0-835.7,313.2C-65,1818.4,968.5,1744,968.5,1744h2424
		c0,0,1036.2,21.3,889.8-613.4C4206.5,802,3828.4,709.7,3592.5,828z"/>
	<g>
		<path class="st1" d="M2641.1,414.7c0,0-173.6,23.4-344.6,100.4c-98.5,44.4-182.9,115.2-242.6,205.2
			c-79.6,120.1-55.5,318.7,27,407.8c235.5,254.4,633.6,110.4,645.9-93.5c12.3-203.9-244.4-338-448.5-133.6"/>
		<path d="M2645.1,444.4c-12.4,1.7-25.2,3.7-37.5,5.8c-91.9,16.4-182.7,41.1-269.5,75.5c-14.6,6-29.7,12.1-44,18.8
			c-28.5,13.3-55.9,29.1-81.7,47c-54.3,37.7-102,85.4-139.3,140.1c-19,27.7-31.4,58.9-39,91.9c-21,93.9-6.2,212.5,55.5,288.8
			c100.8,117.5,261.7,164.8,411.1,126.2c95.1-24.4,198.9-87.5,217.7-191c7.5-50.5-4.3-103.7-32.5-146.3
			c-79.8-117.6-233.9-125.4-346.2-49.7c-22,14.3-42.4,31.1-61.2,49.5c36.7-37.7,80.6-69.3,130.3-87.6
			c49.7-18.6,105.3-22.7,156.8-8.6c108.8,28.9,181.1,132.4,167.1,244.8c-11.8,82.8-79.3,145.2-150.8,181.2
			c-174.7,87.4-392.2,47.5-521.3-100.5c-83.3-101.6-98.4-278.5-40.3-395.5c4.4-8.8,9.2-17.4,14.5-25.7
			c60.6-94.5,149.2-170.5,251-217.7c105.3-48.4,217.1-81.9,330.9-103.2c5.3-1.1,9.9-1.7,15.1-2.6c0,0,5.3-0.8,5.3-0.8
			S2645.1,444.4,2645.1,444.4L2645.1,444.4z"/>
	</g>
	<g>
		<path class="st1" d="M872.8,743.7c0,0,353.5,202.2,229.4,502.2c-108,261-513.1,142.7-522.9-63.9c-7.9-167.1,166.2-256,313.2-136"
			/>
		<path d="M887.7,717.7c123.5,78.8,244,207.9,260.9,359.2c7.2,62.7-5,126.2-31.1,183.1c-30.9,68.1-87.8,118.7-160,139.1
			c-108.8,30.4-233.5-1.8-316.7-77.2c-39-35.7-68-85.5-69.4-139.4c-1.3-40.8,8.3-82.7,30.9-117c62.7-93.7,181.4-98,268.7-36
			c7.4,5.2,14.6,10.7,21.5,16.6c-28.3-22.2-60.9-39.6-96.1-47.6c-127.5-28.9-227,72.6-207.3,199.3c24.1,128.4,190.2,196.8,309,181.4
			c86.1-9.9,154.7-59.7,185.9-140.9c48.9-121,14.9-240-68-336.5c-43.3-50.7-95.9-94.5-153-129.1c0,0-2.7-1.6-2.7-1.6
			s-1.3-0.7-1.3-0.7s-1.1-0.6-1.1-0.6L887.7,717.7L887.7,717.7z"/>
	</g>
</g>
</svg>
