<svg xmlns="http://www.w3.org/2000/svg" xmlns:xlink="http://www.w3.org/1999/xlink" viewBox="0 0 591.39 428.24"><defs><style>.cls-1,.cls-12,.cls-13,.cls-17,.cls-20,.cls-21,.cls-25,.cls-28,.cls-29,.cls-4,.cls-5,.cls-9{stroke-miterlimit:10;}.cls-1,.cls-10,.cls-11,.cls-13,.cls-17,.cls-18,.cls-19,.cls-2,.cls-21,.cls-3,.cls-5,.cls-9{stroke-width:4px;}.cls-1{fill:url(#Dégradé_sans_nom_47);stroke:url(#Dégradé_sans_nom_85);}.cls-10,.cls-11,.cls-18,.cls-19,.cls-2,.cls-26,.cls-27,.cls-3{fill:#fff;stroke-linecap:round;stroke-linejoin:round;}.cls-2{stroke:url(#Dégradé_sans_nom_85-2);}.cls-3{stroke:url(#Dégradé_sans_nom_85-3);}.cls-12,.cls-20,.cls-28,.cls-4{fill:#1d1d1b;}.cls-4{stroke:url(#Dégradé_sans_nom_85-4);}.cls-13,.cls-21,.cls-29,.cls-5{fill:none;}.cls-5{stroke:url(#Dégradé_sans_nom_85-5);}.cls-6{fill:url(#Dégradé_sans_nom_85-6);}.cls-7{fill:url(#Dégradé_sans_nom_85-7);}.cls-8{fill:url(#Dégradé_sans_nom_85-8);}.cls-9{fill:url(#Dégradé_sans_nom_61);stroke:url(#Dégradé_sans_nom_85-9);}.cls-10{stroke:url(#Dégradé_sans_nom_85-10);}.cls-11{stroke:url(#Dégradé_sans_nom_85-11);}.cls-12{stroke:url(#Dégradé_sans_nom_85-12);}.cls-13{stroke:url(#Dégradé_sans_nom_85-13);}.cls-14{fill:url(#Dégradé_sans_nom_85-14);}.cls-15{fill:url(#Dégradé_sans_nom_85-15);}.cls-16{fill:url(#Dégradé_sans_nom_85-16);}.cls-17{fill:url(#Dégradé_sans_nom_54);stroke:url(#Dégradé_sans_nom_85-17);}.cls-18{stroke:url(#Dégradé_sans_nom_85-18);}.cls-19{stroke:url(#Dégradé_sans_nom_85-19);}.cls-20{stroke:url(#Dégradé_sans_nom_85-20);}.cls-21{stroke:url(#Dégradé_sans_nom_85-21);}.cls-22{fill:url(#Dégradé_sans_nom_85-22);}.cls-23{fill:url(#Dégradé_sans_nom_85-23);}.cls-24{fill:url(#Dégradé_sans_nom_85-24);}.cls-25,.cls-26,.cls-27,.cls-29{stroke-width:10px;}.cls-25{fill:url(#Dégradé_sans_nom_18);stroke:url(#Dégradé_sans_nom_74);}.cls-26{stroke:url(#Dégradé_sans_nom_74-2);}.cls-27{stroke:url(#Dégradé_sans_nom_74-3);}.cls-28{stroke:url(#Dégradé_sans_nom_74-4);}.cls-29{stroke:url(#Dégradé_sans_nom_74-5);}.cls-30{fill:url(#Dégradé_sans_nom_74-6);}.cls-31{fill:url(#Dégradé_sans_nom_74-7);}.cls-32{fill:url(#Dégradé_sans_nom_74-8);}</style><linearGradient id="Dégradé_sans_nom_47" x1="24.64" y1="140.9" x2="181.73" y2="140.9" gradientTransform="translate(83.29 -32.61) rotate(29.68)" gradientUnits="userSpaceOnUse"><stop offset="0" stop-color="#55fff7"/><stop offset="0.16" stop-color="#59fef7"/><stop offset="0.31" stop-color="#64faf8"/><stop offset="0.46" stop-color="#78f3f9"/><stop offset="0.61" stop-color="#93eafa"/><stop offset="0.76" stop-color="#b6defc"/><stop offset="0.91" stop-color="#e0d0fe"/><stop offset="1" stop-color="#ffc5ff"/></linearGradient><linearGradient id="Dégradé_sans_nom_85" x1="22.64" y1="140.9" x2="183.73" y2="140.9" gradientTransform="translate(83.29 -32.61) rotate(29.68)" gradientUnits="userSpaceOnUse"><stop offset="0" stop-color="#1d4fff"/><stop offset="0.15" stop-color="#2150ff"/><stop offset="0.29" stop-color="#2c54ff"/><stop offset="0.43" stop-color="#405bff"/><stop offset="0.57" stop-color="#5b64ff"/><stop offset="0.71" stop-color="#7e70ff"/><stop offset="0.85" stop-color="#a97eff"/><stop offset="0.98" stop-color="#da8fff"/><stop offset="1" stop-color="#e191ff"/></linearGradient><linearGradient id="Dégradé_sans_nom_85-2" x1="154.25" y1="83.41" x2="192.63" y2="83.41" gradientTransform="matrix(1, 0, 0, 1, 0, 0)" xlink:href="#Dégradé_sans_nom_85"/><linearGradient id="Dégradé_sans_nom_85-3" x1="0" y1="173.66" x2="36.41" y2="173.66" gradientTransform="matrix(1, 0, 0, 1, 0, 0)" xlink:href="#Dégradé_sans_nom_85"/><linearGradient id="Dégradé_sans_nom_85-4" x1="13.49" y1="119.81" x2="172.3" y2="119.81" gradientTransform="matrix(1, 0, 0, 1, 0, 0)" xlink:href="#Dégradé_sans_nom_85"/><linearGradient id="Dégradé_sans_nom_85-5" x1="21.57" y1="119.99" x2="163.83" y2="119.99" gradientTransform="matrix(1, 0, 0, 1, 0, 0)" xlink:href="#Dégradé_sans_nom_85"/><linearGradient id="Dégradé_sans_nom_85-6" x1="62.63" y1="164.94" x2="163.98" y2="164.94" gradientTransform="matrix(1, 0, 0, 1, 0, 0)" xlink:href="#Dégradé_sans_nom_85"/><linearGradient id="Dégradé_sans_nom_85-7" x1="59.69" y1="189.7" x2="78.02" y2="189.7" gradientTransform="matrix(1, 0, 0, 1, 0, 0)" xlink:href="#Dégradé_sans_nom_85"/><linearGradient id="Dégradé_sans_nom_85-8" x1="148.72" y1="133.48" x2="175.38" y2="133.48" gradientTransform="matrix(1, 0, 0, 1, 0, 0)" xlink:href="#Dégradé_sans_nom_85"/><linearGradient id="Dégradé_sans_nom_61" x1="420.3" y1="178.03" x2="574.94" y2="178.03" gradientTransform="translate(257.01 -292.53) rotate(43.23)" gradientUnits="userSpaceOnUse"><stop offset="0" stop-color="#d3ff7f"/><stop offset="0.18" stop-color="#d4fc83"/><stop offset="0.36" stop-color="#d6f28e"/><stop offset="0.53" stop-color="#dae1a2"/><stop offset="0.7" stop-color="#dfc9bd"/><stop offset="0.87" stop-color="#e6abdf"/><stop offset="1" stop-color="#ec90ff"/></linearGradient><linearGradient id="Dégradé_sans_nom_85-9" x1="418.3" y1="178.03" x2="576.94" y2="178.03" gradientTransform="translate(257.01 -292.53) rotate(43.23)" xlink:href="#Dégradé_sans_nom_85"/><linearGradient id="Dégradé_sans_nom_85-10" x1="547.01" y1="231.27" x2="591.39" y2="231.27" gradientTransform="matrix(1, 0, 0, 1, 0, 0)" xlink:href="#Dégradé_sans_nom_85"/><linearGradient id="Dégradé_sans_nom_85-11" x1="423.93" y1="105.16" x2="469.68" y2="105.16" gradientTransform="matrix(1, 0, 0, 1, 0, 0)" xlink:href="#Dégradé_sans_nom_85"/><linearGradient id="Dégradé_sans_nom_85-12" x1="442.11" y1="162.83" x2="587.6" y2="162.83" gradientTransform="matrix(1, 0, 0, 1, 0, 0)" xlink:href="#Dégradé_sans_nom_85"/><linearGradient id="Dégradé_sans_nom_85-13" x1="450.39" y1="162.73" x2="578.92" y2="162.73" gradientTransform="matrix(1, 0, 0, 1, 0, 0)" xlink:href="#Dégradé_sans_nom_85"/><linearGradient id="Dégradé_sans_nom_85-14" x1="438.56" y1="193.57" x2="522.48" y2="193.57" gradientTransform="matrix(1, 0, 0, 1, 0, 0)" xlink:href="#Dégradé_sans_nom_85"/><linearGradient id="Dégradé_sans_nom_85-15" x1="431.28" y1="155.46" x2="455.78" y2="155.46" gradientTransform="matrix(1, 0, 0, 1, 0, 0)" xlink:href="#Dégradé_sans_nom_85"/><linearGradient id="Dégradé_sans_nom_85-16" x1="509.44" y1="233.7" x2="524.59" y2="233.7" gradientTransform="matrix(1, 0, 0, 1, 0, 0)" xlink:href="#Dégradé_sans_nom_85"/><linearGradient id="Dégradé_sans_nom_54" x1="233.88" y1="79.33" x2="388.53" y2="79.33" gradientTransform="translate(351.26 -239.32) rotate(82.86)" gradientUnits="userSpaceOnUse"><stop offset="0" stop-color="#6a9dff"/><stop offset="0.17" stop-color="#6e9eff"/><stop offset="0.33" stop-color="#79a1ff"/><stop offset="0.5" stop-color="#8da6ff"/><stop offset="0.65" stop-color="#a8aeff"/><stop offset="0.81" stop-color="#cbb7ff"/><stop offset="0.97" stop-color="#f5c2ff"/><stop offset="1" stop-color="#ffc5ff"/></linearGradient><linearGradient id="Dégradé_sans_nom_85-17" x1="231.88" y1="79.33" x2="390.53" y2="79.33" gradientTransform="translate(351.26 -239.32) rotate(82.86)" xlink:href="#Dégradé_sans_nom_85"/><linearGradient id="Dégradé_sans_nom_85-18" x1="391.43" y1="74.89" x2="416.58" y2="74.89" gradientTransform="matrix(1, 0, 0, 1, 0, 0)" xlink:href="#Dégradé_sans_nom_85"/><linearGradient id="Dégradé_sans_nom_85-19" x1="209.16" y1="56.57" x2="236.36" y2="56.57" gradientTransform="matrix(1, 0, 0, 1, 0, 0)" xlink:href="#Dégradé_sans_nom_85"/><linearGradient id="Dégradé_sans_nom_85-20" x1="235.03" y1="55.64" x2="393.84" y2="55.64" gradientTransform="matrix(1, 0, 0, 1, 0, 0)" xlink:href="#Dégradé_sans_nom_85"/><linearGradient id="Dégradé_sans_nom_85-21" x1="241.76" y1="55.79" x2="386.84" y2="55.79" gradientTransform="matrix(1, 0, 0, 1, 0, 0)" xlink:href="#Dégradé_sans_nom_85"/><linearGradient id="Dégradé_sans_nom_85-22" x1="252.04" y1="114.19" x2="365.49" y2="114.19" gradientTransform="matrix(1, 0, 0, 1, 0, 0)" xlink:href="#Dégradé_sans_nom_85"/><linearGradient id="Dégradé_sans_nom_85-23" x1="243.91" y1="95.88" x2="269.04" y2="95.88" gradientTransform="matrix(1, 0, 0, 1, 0, 0)" xlink:href="#Dégradé_sans_nom_85"/><linearGradient id="Dégradé_sans_nom_85-24" x1="348.71" y1="110.12" x2="371.25" y2="110.12" gradientTransform="matrix(1, 0, 0, 1, 0, 0)" xlink:href="#Dégradé_sans_nom_85"/><linearGradient id="Dégradé_sans_nom_18" x1="190" y1="364.93" x2="411.09" y2="207.31" gradientTransform="translate(516.34 -65.34) rotate(77.77)" gradientUnits="userSpaceOnUse"><stop offset="0" stop-color="#ffd62a"/><stop offset="0.14" stop-color="#fed52e"/><stop offset="0.28" stop-color="#fdd139"/><stop offset="0.42" stop-color="#facb4d"/><stop offset="0.55" stop-color="#f6c268"/><stop offset="0.68" stop-color="#f1b78b"/><stop offset="0.82" stop-color="#eba9b6"/><stop offset="0.95" stop-color="#e499e7"/><stop offset="1" stop-color="#e191ff"/></linearGradient><linearGradient id="Dégradé_sans_nom_74" x1="157.89" y1="287.45" x2="439.47" y2="287.45" gradientTransform="translate(516.34 -65.34) rotate(77.77)" gradientUnits="userSpaceOnUse"><stop offset="0" stop-color="#7f4fff"/><stop offset="0.21" stop-color="#8352ff"/><stop offset="0.41" stop-color="#8e59ff"/><stop offset="0.61" stop-color="#a266ff"/><stop offset="0.8" stop-color="#bd79ff"/><stop offset="0.99" stop-color="#df90ff"/><stop offset="1" stop-color="#e191ff"/></linearGradient><linearGradient id="Dégradé_sans_nom_74-2" x1="434.67" y1="293.3" x2="486" y2="293.3" gradientTransform="matrix(1, 0, 0, 1, 0, 0)" xlink:href="#Dégradé_sans_nom_74"/><linearGradient id="Dégradé_sans_nom_74-3" x1="121.37" y1="234.41" x2="176.36" y2="234.41" gradientTransform="matrix(1, 0, 0, 1, 0, 0)" xlink:href="#Dégradé_sans_nom_74"/><linearGradient id="Dégradé_sans_nom_74-4" x1="168.4" y1="247.03" x2="446.26" y2="247.03" gradientTransform="matrix(1, 0, 0, 1, 0, 0)" xlink:href="#Dégradé_sans_nom_74"/><linearGradient id="Dégradé_sans_nom_74-5" x1="178.84" y1="247.07" x2="435.65" y2="247.07" gradientTransform="matrix(1, 0, 0, 1, 0, 0)" xlink:href="#Dégradé_sans_nom_74"/><linearGradient id="Dégradé_sans_nom_74-6" x1="191.81" y1="345" x2="390.73" y2="345" gradientTransform="matrix(1, 0, 0, 1, 0, 0)" xlink:href="#Dégradé_sans_nom_74"/><linearGradient id="Dégradé_sans_nom_74-7" x1="175.99" y1="306.17" x2="223.6" y2="306.17" gradientTransform="matrix(1, 0, 0, 1, 0, 0)" xlink:href="#Dégradé_sans_nom_74"/><linearGradient id="Dégradé_sans_nom_74-8" x1="360.04" y1="348.88" x2="399.76" y2="348.88" gradientTransform="matrix(1, 0, 0, 1, 0, 0)" xlink:href="#Dégradé_sans_nom_74"/></defs><title>Fichier 1</title><g id="Calque_2" data-name="Calque 2"><g id="Calque_1-2" data-name="Calque 1"><g id="_Groupe_" data-name="&lt;Groupe&gt;"><circle id="_Tracé_" data-name="&lt;Tracé&gt;" class="cls-1" cx="103.18" cy="140.9" r="78.53" transform="translate(-56.22 69.57) rotate(-29.68)"/><g id="_Groupe_2" data-name="&lt;Groupe&gt;"><path id="_Tracé_2" data-name="&lt;Tracé&gt;" class="cls-2" d="M184.49,105.55c4.53-2.65,6.38-8,6.12-13.22-.55-10.95-8.43-23.86-17-29.25-3-1.92-5.88-3.05-9.41-2.29a24,24,0,0,0-5.8,2.12c-2.69,1.4-2.79,2.24-.68,4.35,4,4,8,7.63,13.31,17A176.67,176.67,0,0,1,180.16,104C181.21,106.48,182.29,106.84,184.49,105.55Z"/></g><g id="_Groupe_3" data-name="&lt;Groupe&gt;"><path id="_Tracé_3" data-name="&lt;Tracé&gt;" class="cls-3" d="M32.48,195.73C27.85,198.21,22.34,197,18,194c-9-6.21-15.91-19.68-16-29.8,0-3.6.48-6.61,3-9.21a24,24,0,0,1,4.84-3.83c2.6-1.56,3.37-1.2,4.06,1.7,1.33,5.57,2.29,10.84,7.48,20.22a176.67,176.67,0,0,0,12,18.13C35,193.43,34.73,194.53,32.48,195.73Z"/></g><path id="_Tracé_4" data-name="&lt;Tracé&gt;" class="cls-4" d="M149.73,66c-3.58-3.15-7.41-6-11.16-9-3.36-2.65-7.16-2.9-11-1.52,0,0-16,3.69-56.9,25.89l-.95.54c-40,23.87-51.28,35.76-51.28,35.76-3.16,2.63-4.88,6-4.31,10.26.63,4.73,1.16,9.49,2,14.18a62.38,62.38,0,0,0,9,22.21c4,6.17,8.63,12.41,14.33,17,10.5,8.51,23.48-.33,30.69-3.94,7.5-3.76,14-8.95,20.38-14.25,6.09-5,11.32-9.16,18.15-13l.89-.51c6.74-3.94,13-6.34,20.39-9,7.83-2.82,15.59-5.73,22.65-10.27,6.78-4.36,21-11,19-24.39-1.07-7.26-4.06-14.46-7.35-21A62.38,62.38,0,0,0,149.73,66Z"/><path id="_Tracé_5" data-name="&lt;Tracé&gt;" class="cls-5" d="M144.4,73.32c-3-2.43-6.2-4.63-9.34-6.9-2.81-2-6.11-2.07-9.54-.78,0,0-14.09,3.71-50.67,23.67L74,89.8c-35.82,21.29-46.2,31.53-46.2,31.53-2.86,2.29-4.51,5.15-4.19,8.6.35,3.86.61,7.74,1.18,11.55a44.6,44.6,0,0,0,6.86,17.84c3.18,4.89,7,9.82,11.76,13.36,8.79,6.54,20.47-1.27,26.9-4.54,6.69-3.4,12.55-7.94,18.36-12.56A115.91,115.91,0,0,1,105,144.18l.8-.45A115.91,115.91,0,0,1,124,135.46c6.94-2.64,13.83-5.37,20.17-9.39,6.09-3.87,18.76-9.94,17.62-20.83-.62-5.91-2.92-11.69-5.5-16.93A44.6,44.6,0,0,0,144.4,73.32Z"/><g id="_Groupe_4" data-name="&lt;Groupe&gt;"><g id="_Groupe_5" data-name="&lt;Groupe&gt;"><path class="cls-6" d="M161.49,129.81a48.38,48.38,0,0,1,1,9,62.25,62.25,0,0,1-.42,9.06,59,59,0,0,1-5,17.55,56.77,56.77,0,0,1-10.35,15.2,65.61,65.61,0,0,1-31.66,18,56.81,56.81,0,0,1-18.35,1.16,59,59,0,0,1-17.63-4.67,62.37,62.37,0,0,1-8-4.26,47.91,47.91,0,0,1-7.19-5.43,60.54,60.54,0,0,0,7.73,4.46,67.43,67.43,0,0,0,8.18,3.39A63,63,0,0,0,97,196.66a61.21,61.21,0,0,0,8.69-.21,56.88,56.88,0,0,0,8.53-1.51,67.61,67.61,0,0,0,29.85-17A57.92,57.92,0,0,0,154.32,164a63,63,0,0,0,5.83-16.49,67.57,67.57,0,0,0,1.25-8.77c.13-1.48.19-3,.21-4.45A43.41,43.41,0,0,0,161.49,129.81Z"/></g></g><g id="_Groupe_6" data-name="&lt;Groupe&gt;"><path class="cls-7" d="M77.93,180.54c-2.42,1-4.71,1.85-6.84,2.86a19,19,0,0,0-5.5,3.55,7.9,7.9,0,0,0-2.3,5.28,31.42,31.42,0,0,0,.79,7.14,12.74,12.74,0,0,1-3.93-6.91A9.64,9.64,0,0,1,60.4,188a9.54,9.54,0,0,1,2.35-3.89,14.34,14.34,0,0,1,7.39-3.73A17.62,17.62,0,0,1,77.93,180.54Z"/></g><g id="_Groupe_7" data-name="&lt;Groupe&gt;"><path class="cls-8" d="M150.4,139.24a17.63,17.63,0,0,1,3.87-6.78,14.34,14.34,0,0,1,7-4.46,9.54,9.54,0,0,1,4.55,0,9.64,9.64,0,0,1,3.93,2.05,12.74,12.74,0,0,1,3.94,6.9,31.43,31.43,0,0,0-5.74-4.32,7.9,7.9,0,0,0-5.72-.72,19,19,0,0,0-5.85,2.92C154.39,136.14,152.48,137.67,150.4,139.24Z"/></g></g><g id="_Groupe_8" data-name="&lt;Groupe&gt;"><g id="_Groupe_9" data-name="&lt;Groupe&gt;"><circle id="_Tracé_6" data-name="&lt;Tracé&gt;" class="cls-9" cx="497.62" cy="178.03" r="77.32" transform="translate(13.12 389.18) rotate(-43.23)"/><g id="_Groupe_10" data-name="&lt;Groupe&gt;"><path id="_Tracé_7" data-name="&lt;Tracé&gt;" class="cls-10" d="M550.22,247.7c3.58,3.73,9.11,4.27,14.07,2.8,10.35-3.05,20.89-13.58,24.08-23,1.13-3.35,1.56-6.34,0-9.53a23.66,23.66,0,0,0-3.36-5.06c-2-2.25-2.79-2.15-4.32.35-2.94,4.81-5.45,9.45-13.17,16.65a174,174,0,0,1-16.8,13.3C548.57,244.78,548.48,245.89,550.22,247.7Z"/></g><g id="_Groupe_11" data-name="&lt;Groupe&gt;"><path id="_Tracé_8" data-name="&lt;Tracé&gt;" class="cls-11" d="M428.82,123c-3.44-3.86-3.54-9.42-1.69-14.24C431,98.68,442.29,89,452,86.56c3.43-.87,6.44-1.06,9.51.72A23.66,23.66,0,0,1,466.24,91c2.09,2.13,1.93,3-.69,4.28-5,2.56-9.84,4.69-17.63,11.82a174,174,0,0,0-14.57,15.71C431.6,124.88,430.49,124.88,428.82,123Z"/></g><path id="_Tracé_9" data-name="&lt;Tracé&gt;" class="cls-12" d="M580.06,205.29c2.19-4.16,4.06-8.48,6-12.76,1.76-3.83,1.12-7.52-1.09-10.9,0,0-7.23-14.46-37.92-48.49l-.74-.78c-32.07-32.73-46.06-40.84-46.06-40.84-3.24-2.42-6.89-3.28-10.82-1.76-4.39,1.7-8.82,3.3-13.1,5.23a61.43,61.43,0,0,0-19.19,13.71c-5,5.21-9.89,11.13-13,17.65-5.72,12,5.73,22.4,10.86,28.47,5.33,6.31,11.79,11.3,18.34,16.22,6.22,4.66,11.38,8.72,16.58,14.38l.69.73c5.33,5.55,9.06,10.94,13.33,17.44,4.5,6.85,9.09,13.6,15.06,19.31,5.74,5.49,15.39,17.56,27.74,12.59,6.7-2.7,12.91-7.22,18.41-11.88A61.43,61.43,0,0,0,580.06,205.29Z"/><path id="_Tracé_10" data-name="&lt;Tracé&gt;" class="cls-13" d="M571.82,201.88c1.64-3.42,3-7,4.45-10.53,1.3-3.16.58-6.33-1.46-9.31,0,0-6.8-12.63-34.35-43l-.66-.7C511.15,108.93,499,101.36,499,101.36c-2.85-2.21-6-3.12-9.2-2-3.61,1.23-7.27,2.37-10.78,3.79a43.91,43.91,0,0,0-15.5,10.69c-3.95,4.18-7.78,9-10.08,14.34-4.23,9.92,5.94,19.3,10.56,24.7,4.8,5.62,10.49,10.18,16.26,14.67a114.13,114.13,0,0,1,14.69,13l.62.66a114.13,114.13,0,0,1,12.1,15.46c4.13,6,8.33,12,13.64,17.13,5.11,4.94,13.84,15.67,24,12.06,5.51-2,10.52-5.49,14.93-9.17A43.91,43.91,0,0,0,571.82,201.88Z"/><g id="_Groupe_12" data-name="&lt;Groupe&gt;"><g id="_Groupe_13" data-name="&lt;Groupe&gt;"><path class="cls-14" d="M521.69,231.29a47.56,47.56,0,0,1-8.33,3,61.24,61.24,0,0,1-8.77,1.69,58,58,0,0,1-17.95-.69,55.89,55.89,0,0,1-16.95-6.4,64.59,64.59,0,0,1-24.59-26.15,55.93,55.93,0,0,1-5.34-17.31,58,58,0,0,1,.41-18,61.37,61.37,0,0,1,2.23-8.65,47.1,47.1,0,0,1,3.55-8.13,59.73,59.73,0,0,0-2.48,8.43,66.43,66.43,0,0,0-1.35,8.61,62.09,62.09,0,0,0,.72,17.2,60.36,60.36,0,0,0,2.21,8.26,56,56,0,0,0,3.42,7.81,66.59,66.59,0,0,0,23.16,24.64,57,57,0,0,0,15.7,6.61,62.1,62.1,0,0,0,17.12,1.78,66.58,66.58,0,0,0,8.68-.82c1.44-.22,2.88-.5,4.31-.82A42.74,42.74,0,0,0,521.69,231.29Z"/></g></g><g id="_Groupe_14" data-name="&lt;Groupe&gt;"><path class="cls-15" d="M453.85,163c-1.51-2.08-2.88-4.07-4.33-5.88a18.82,18.82,0,0,0-4.66-4.43,7.77,7.77,0,0,0-5.57-1,31.24,31.24,0,0,0-6.66,2.38,12.5,12.5,0,0,1,5.7-5.38,9.15,9.15,0,0,1,8.58.55,14.11,14.11,0,0,1,5.28,6.22A17.26,17.26,0,0,1,453.85,163Z"/></g></g><g id="_Groupe_15" data-name="&lt;Groupe&gt;"><path class="cls-16" d="M510.1,222.84A17.26,17.26,0,0,1,517.5,225a14.11,14.11,0,0,1,5.89,5.65,9.15,9.15,0,0,1,0,8.6,12.5,12.5,0,0,1-5.72,5.36,31.25,31.25,0,0,0,2.79-6.5,7.77,7.77,0,0,0-.64-5.62,18.82,18.82,0,0,0-4.13-4.92C514,226,512.09,224.48,510.1,222.84Z"/></g></g><g id="_Groupe_16" data-name="&lt;Groupe&gt;"><circle id="_Tracé_11" data-name="&lt;Tracé&gt;" class="cls-17" cx="311.21" cy="79.33" r="77.32" transform="translate(193.83 378.27) rotate(-82.86)"/><g id="_Groupe_17" data-name="&lt;Groupe&gt;"><path id="_Tracé_12" data-name="&lt;Tracé&gt;" class="cls-18" d="M396.15,99.44c5.14.59,9.74-2.53,12.62-6.82,6-9,7.43-23.78,3.86-33.09-1.27-3.31-2.84-5.88-6.06-7.36a23.66,23.66,0,0,0-5.82-1.75c-2.95-.48-3.52.12-3.11,3,.8,5.58,1.83,10.75.48,21.22a174,174,0,0,1-4.46,21C393,98.24,393.66,99.15,396.15,99.44Z"/></g><g id="_Groupe_18" data-name="&lt;Groupe&gt;"><path id="_Tracé_13" data-name="&lt;Tracé&gt;" class="cls-19" d="M223.12,80.84c-5.11-.78-8.73-5-10.39-9.89-3.46-10.22-.93-24.9,5-32.94,2.09-2.86,4.28-4.93,7.78-5.51a23.66,23.66,0,0,1,6.07-.16c3,.31,3.37,1,2.2,3.73-2.24,5.17-4.59,9.89-6,20.35a174,174,0,0,0-1.2,21.39C226.46,80.5,225.6,81.22,223.12,80.84Z"/></g><path id="_Tracé_14" data-name="&lt;Tracé&gt;" class="cls-20" d="M392.08,47.75c-1-4.6-2.28-9.12-3.49-13.67-1.08-4.07-3.93-6.51-7.79-7.7,0,0-14.79-6.53-60.13-13.16l-1.07-.13C274,8.33,258.07,11,258.07,11c-4,.21-7.4,1.87-9.45,5.55-2.29,4.11-4.69,8.17-6.76,12.39a61.43,61.43,0,0,0-6,22.8c-.52,7.2-.52,14.88,1.25,21.88,3.26,12.91,18.7,13.59,26.52,15,8.13,1.46,16.29,1.18,24.47.79,7.77-.37,14.33-.54,21.95.5l1,.13c7.64.87,14,2.65,21.39,4.93,7.83,2.4,15.67,4.68,23.91,5.27,7.92.56,23.06,3.71,29.4-8,3.44-6.35,5.33-13.79,6.6-20.89A61.43,61.43,0,0,0,392.08,47.75Z"/><path id="_Tracé_15" data-name="&lt;Tracé&gt;" class="cls-21" d="M383.56,50.37c-.92-3.68-2.15-7.31-3.29-10.95-1-3.26-3.59-5.24-7.06-6.24,0,0-13.3-5.39-53.91-11.23l-1-.12c-40.8-4.35-55-2.4-55-2.4-3.61.12-6.59,1.4-8.38,4.31-2,3.25-4.09,6.46-5.89,9.8a43.91,43.91,0,0,0-5.12,18.11c-.38,5.73-.28,11.86,1.38,17.47,3.07,10.34,16.88,11.07,23.89,12.29,7.28,1.27,14.57,1.14,21.88.93a114.13,114.13,0,0,1,19.62.66l.9.11a114.13,114.13,0,0,1,19.18,4.19c7,2,14.07,3.93,21.44,4.5,7.09.55,20.65,3.24,26.18-6,3-5,4.6-10.94,5.65-16.59A43.91,43.91,0,0,0,383.56,50.37Z"/><g id="_Groupe_19" data-name="&lt;Groupe&gt;"><g id="_Groupe_20" data-name="&lt;Groupe&gt;"><path class="cls-22" d="M363.71,105a47.56,47.56,0,0,1-4.48,7.66,61.25,61.25,0,0,1-5.67,6.9,58,58,0,0,1-14.27,10.91,55.89,55.89,0,0,1-17.13,5.88,64.59,64.59,0,0,1-35.62-4.45A55.93,55.93,0,0,1,271.38,122a58,58,0,0,1-11.14-14.1,61.37,61.37,0,0,1-3.8-8.08A47.1,47.1,0,0,1,254,91.26a59.71,59.71,0,0,0,3.46,8.07,66.43,66.43,0,0,0,4.45,7.5,62.1,62.1,0,0,0,11.53,12.78,60.35,60.35,0,0,0,7,5A56,56,0,0,0,288,128.4a66.59,66.59,0,0,0,33.55,4.21,57,57,0,0,0,16.3-4.92,62.1,62.1,0,0,0,14.32-9.55,66.58,66.58,0,0,0,6.16-6.17c1-1.09,1.9-2.22,2.79-3.38A42.75,42.75,0,0,0,363.71,105Z"/></g></g><g id="_Groupe_21" data-name="&lt;Groupe&gt;"><path class="cls-23" d="M267.91,95.68c-2.49-.64-4.81-1.3-7.09-1.76a18.82,18.82,0,0,0-6.41-.44,7.77,7.77,0,0,0-4.91,2.79,31.24,31.24,0,0,0-3.61,6.08,12.5,12.5,0,0,1,1-7.78,9.15,9.15,0,0,1,7-5.05,14.11,14.11,0,0,1,8,1.43A17.26,17.26,0,0,1,267.91,95.68Z"/></g><g id="_Groupe_22" data-name="&lt;Groupe&gt;"><path class="cls-24" d="M349.4,105.88a17.26,17.26,0,0,1,7-3.09,14.11,14.11,0,0,1,8.14.6,9.15,9.15,0,0,1,5.5,6.61,12.5,12.5,0,0,1-1,7.78,31.25,31.25,0,0,0-2-6.79,7.77,7.77,0,0,0-4.07-3.92,18.82,18.82,0,0,0-6.32-1.16C354.38,105.81,352,105.88,349.4,105.88Z"/></g></g><g id="_Groupe_23" data-name="&lt;Groupe&gt;"><g id="_Groupe_24" data-name="&lt;Groupe&gt;"><circle id="_Tracé_16" data-name="&lt;Tracé&gt;" class="cls-25" cx="298.68" cy="287.45" r="135.76" transform="translate(-45.52 518.46) rotate(-77.77)"/><g id="_Groupe_25" data-name="&lt;Groupe&gt;"><path id="_Tracé_17" data-name="&lt;Tracé&gt;" class="cls-26" d="M444.11,335.86c8.89,1.83,17.42-2.9,23.14-10,11.93-14.72,16.7-40.43,11.91-57.26-1.7-6-4-10.72-9.46-13.81a41.53,41.53,0,0,0-9.9-4c-5.08-1.3-6.18-.33-5.9,4.81.53,9.88,1.52,19.09-2.46,37.19-3.33,15.14-9,30.16-11.06,36C438.81,333.27,439.79,335,444.11,335.86Z"/></g><g id="_Groupe_26" data-name="&lt;Groupe&gt;"><path id="_Tracé_18" data-name="&lt;Tracé&gt;" class="cls-27" d="M144.39,276.36c-8.82-2.16-14.49-10.09-16.63-18.92C123.3,239,130,213.76,141.58,200.61c4.1-4.67,8.25-7.95,14.47-8.42a41.53,41.53,0,0,1,10.65.66c5.15,1,5.72,2.35,3.27,6.87-4.72,8.7-9.56,16.59-13.73,34.65-3.49,15.11-4.78,31.12-5.44,37.23C150.28,276.3,148.68,277.41,144.39,276.36Z"/></g><path id="_Tracé_19" data-name="&lt;Tracé&gt;" class="cls-28" d="M445,244.83c-1-8.19-2.57-16.31-4-24.45-1.26-7.29-5.86-12-12.43-14.69,0,0-24.85-13.73-103.11-32.39l-1.85-.4c-79-15.42-107.27-13.21-107.27-13.21-7.09-.27-13.23,2.11-17.39,8.22-4.65,6.82-9.47,13.55-13.75,20.61a107.85,107.85,0,0,0-14.11,38.93c-2,12.5-3.23,25.94-1.22,38.46,3.69,23.08,30.59,26.69,44,30.36,14,3.82,28.3,4.61,42.67,5.2,13.64.55,25.14,1.29,38.3,4.29l1.73.37c13.22,2.72,24,6.81,36.64,12,13.33,5.42,26.68,10.63,41,12.94,13.76,2.22,39.74,10.08,52.66-9.4,7-10.57,11.48-23.29,14.81-35.51A107.85,107.85,0,0,0,445,244.83Z"/><path id="_Tracé_20" data-name="&lt;Tracé&gt;" class="cls-29" d="M429.74,248.09c-1-6.58-2.62-13.11-4-19.66-1.27-5.86-5.47-9.73-11.37-12,0,0-22.42-11.5-92.53-28.05l-1.65-.36c-70.67-14-95.84-12.78-95.84-12.78-6.32-.36-11.74,1.42-15.33,6.23-4,5.37-8.16,10.66-11.82,16.22a77.1,77.1,0,0,0-11.77,30.88c-1.55,10-2.34,20.7-.3,30.77,3.76,18.56,27.8,22,39.86,25.22,12.54,3.35,25.31,4.27,38.13,5,12.16.72,22.42,1.55,34.21,4.22l1.55.34c11.84,2.45,21.52,5.95,32.89,10.32,12,4.61,24,9.06,36.79,11.2,12.31,2.06,35.61,8.88,46.72-6.45,6-8.32,9.75-18.42,12.46-28.13A77.1,77.1,0,0,0,429.74,248.09Z"/><g id="_Groupe_27" data-name="&lt;Groupe&gt;"><g id="_Groupe_28" data-name="&lt;Groupe&gt;"><path class="cls-30" d="M386.5,340.52a79.33,79.33,0,0,1-8.73,13,101.46,101.46,0,0,1-37.5,28.86A97.66,97.66,0,0,1,309,390.28c-2.69.14-5.4.39-8.1.31l-4.05,0-4-.25c-1.35-.07-2.69-.17-4-.37l-4-.51c-2.66-.38-5.29-.94-7.94-1.41-2.6-.67-5.23-1.24-7.81-2l-3.86-1.2c-1.29-.37-2.56-.84-3.82-1.33L257.62,382l-3.7-1.65c-2.49-1-4.85-2.38-7.25-3.63a97.62,97.62,0,0,1-25.15-20.15,101.36,101.36,0,0,1-22.19-41.8,79.23,79.23,0,0,1-2.57-15.42,122.53,122.53,0,0,0,12.07,28.14,110.92,110.92,0,0,0,18.37,23.66l2.7,2.55,2.82,2.41c.92.82,1.91,1.56,2.88,2.32s1.93,1.54,3,2.22a103.87,103.87,0,0,0,12.58,7.71c2.24,1,4.39,2.23,6.69,3.12l3.41,1.43,3.49,1.24c2.29.9,4.7,1.5,7.05,2.25s4.81,1.18,7.2,1.8c2.43.44,4.86,1,7.3,1.35s4.89.74,7.35.88l3.69.32,3.69.11c2.47.14,4.92-.06,7.38-.06,1.23-.06,2.45-.18,3.68-.27l1.84-.14c.61-.06,1.22-.16,1.83-.24l3.66-.49,3.64-.67c1.22-.19,2.41-.52,3.61-.8s2.41-.55,3.59-.92l3.57-1,3.52-1.21a110.77,110.77,0,0,0,26.52-13.94A122.33,122.33,0,0,0,386.5,340.52Z"/></g></g></g><g id="_Groupe_29" data-name="&lt;Groupe&gt;"><path class="cls-31" d="M220.42,309.3c-4.65-1-8.69-2.22-12.6-3.12a38,38,0,0,0-10.58-1.35,13.52,13.52,0,0,0-8.19,3.35c-.31.31-.66.59-1,.89s-.63.68-1,1c-.7.66-1.3,1.47-2,2.24s-1.29,1.66-2,2.51-1.36,1.79-2.17,2.71a24,24,0,0,1-.5-3.53,26.47,26.47,0,0,1,.15-3.56,19.67,19.67,0,0,1,.8-3.57,18,18,0,0,1,1.51-3.51,16.94,16.94,0,0,1,5.68-6,17.23,17.23,0,0,1,8.12-2.55,21.52,21.52,0,0,1,7.81,1A26.62,26.62,0,0,1,211,299a29.69,29.69,0,0,1,5.38,4.51A22.6,22.6,0,0,1,220.42,309.3Z"/></g><g id="_Groupe_30" data-name="&lt;Groupe&gt;"><path class="cls-32" d="M361.34,339.84a22.6,22.6,0,0,1,6-3.58,29.69,29.69,0,0,1,6.76-1.88,26.62,26.62,0,0,1,7.29-.14,21.52,21.52,0,0,1,7.54,2.3,17.23,17.23,0,0,1,6.33,5.68A16.94,16.94,0,0,1,398,350a18,18,0,0,1-.08,3.82,19.68,19.68,0,0,1-.75,3.58,26.46,26.46,0,0,1-1.34,3.3,24,24,0,0,1-1.91,3c-.36-1.17-.63-2.28-.85-3.36s-.51-2.13-.81-3.13-.53-2-.89-2.87c-.19-.45-.28-.91-.48-1.33s-.39-.82-.54-1.23a13.52,13.52,0,0,0-6.07-6.44,38,38,0,0,0-10.19-3.15C370.17,341.42,366,340.86,361.34,339.84Z"/></g></g></g></g></svg>