<?xml version="1.0" encoding="utf-8"?>
<!-- Generator: Adobe Illustrator 21.0.0, SVG Export Plug-In . SVG Version: 6.00 Build 0)  -->
<svg version="1.1" id="Calque_1" xmlns="http://www.w3.org/2000/svg" xmlns:xlink="http://www.w3.org/1999/xlink" x="0px" y="0px"
	 viewBox="0 0 529.8 336.3" style="enable-background:new 0 0 529.8 336.3;" xml:space="preserve">
<style type="text/css">
	.st0{fill:#FFFFFF;}
	.st1{fill:url(#SVGID_1_);}
	.st2{fill:url(#SVGID_2_);}
	.st3{fill:url(#SVGID_3_);}
	.st4{fill:url(#SVGID_4_);}
	.st5{fill:url(#SVGID_5_);}
	.st6{fill:url(#SVGID_6_);}
	.st7{fill:url(#SVGID_7_);}
	.st8{fill:url(#SVGID_8_);}
	.st9{fill:url(#SVGID_9_);}
</style>
<path class="st0" d="M365.1,281.6c-2.5,21.2-19.3,29.5-33.5,26.4c-3,4.9-5.5,9.7-8.7,14c-3.8,5.1-9.3,7.9-15.7,8.1
	c-21.1,0.5-41.5-3.3-61.2-11c-0.8-0.3-1.6-0.4-2.7-0.7c-1.7,2-3.7,4.1-5.4,6.3c-6.8,8.7-15.9,12.6-26.5,11.3
	c-12-1.5-20.5-8.2-24.4-20c-0.3-1-0.8-2-1.2-3c-16.7,8.3-42.9-1.3-43.3-24.4c-11.6,2.4-22.3,1.3-30.8-7.9
	c-8.5-9.1-9.3-19.7-5.9-30.2c-5.1-1.9-10.4-3-14.7-5.6c-7.6-4.5-12.2-11.5-13.6-20.5c-1.3-8.3,0.9-15.7,6-22.3c1.6-2.1,2-4,0.4-6.3
	c-2.3-3.2-4.3-6.5-6.8-9.5c-0.7-0.8-2.6-0.7-4-0.8c-2.2-0.2-4.9,0.5-6.6-0.5c-11.7-6.6-23.3-13.5-34.8-20.4
	c-8.7-5.2-17.4-10.5-26.2-15.6c-5.3-3.1-6.4-5.1-4.3-10.7c5.1-13.7,10.3-27.4,15.8-41C24.9,77.7,34.9,59,47.4,41.8
	c4.6-6.4,9.7-12.4,14.8-18.4c3.8-4.4,7.9-8.6,12-12.8c3.1-3.1,6.3-6,9.6-8.8c2.6-2.2,5.5-2.4,8.5-0.6c20.2,11.9,40.4,23.9,60.7,35.7
	c7.9,4.6,6.3,10.6,0.5,13.7c-1.3,0.7-2.2,2-3.3,3.1c4.9,7.1,12.2,9.4,19.9,10.1c7.6,0.8,15.4,0.7,23.1,0.8c1.6,0,3.7-0.7,4.8-1.9
	c8.6-8.9,19.4-13.3,31.2-15.2c12.5-2,25.1-3.5,37.7-4.5c10.3-0.8,20.7-1.5,30.9-0.6c13,1.2,25.9,3.9,38.8,6.1
	c10.2,1.7,20.3,3.9,30.8,2c2.1-0.4,4.4-0.1,7.3-0.1c-2.4-3.2-5.1-6-2.6-9.3c1.5-2,3.8-3.6,6-5c12.9-7.7,25.9-15.3,38.9-22.9
	c6.9-4.1,13.7-8.6,20.8-12.2c2-1,6.2-0.8,7.7,0.7c9.1,8.7,18,17.7,26.6,27c12.8,14,22.6,30.3,30.9,47.2c7.9,16.1,14.2,33,21.1,49.5
	c1.8,4.4,3.1,9,4.6,13.5c1.6,4.8,1,6.7-3.2,9.3c-12.1,7.2-24.2,14.3-36.3,21.5c-7.7,4.6-15.3,9.2-23,13.8c-6.6,4-9.3,3.5-12.9-2.1
	c-9.9,7.7-19.9,15.4-29.8,23.2c12.7,18.3-0.4,43.8-23,44.8c0.3,9.8-2.5,18.5-10.1,25C383.3,280.8,374.9,283.6,365.1,281.6z
	 M237.7,264.8c-0.4-0.8-0.7-1.4-0.8-2c-0.7-2.8-1.3-5.6,1.6-7.7c2.7-2,5.1-1.5,7.7,0.4c2.8,2.1,6.1,3.6,9.1,5.5
	c16.8,10.9,34.7,19.4,53.7,25.8c7.2,2.4,14.4,5.1,21.5,8c12.6,5.2,22.7-4.9,22.2-15.2c-0.1-2-0.7-3.4-3.1-4.4
	c-13.3-5.3-26.7-10.3-39.5-16.5c-15.2-7.4-29.9-15.8-44.6-24c-4.8-2.7-9.4-5.8-13.7-9.1c-3.2-2.5-3.4-5.2-1.3-8
	c1.8-2.5,4.8-3.8,8.2-1.7c12.3,7.4,24.5,14.9,37.2,21.5c14.2,7.4,28.8,14.1,43.4,20.7c8.3,3.8,16.8,7,25.3,10.4
	c2.1,0.8,4.5,1.5,6.7,1.5c7.6,0,15.5-6.7,17.2-14.2c1.2-5.1-0.8-10-4.4-11.7c-13.8-6.5-27.9-12.7-41.3-19.9
	c-21.8-11.7-43.2-24-64.8-36.1c-2.8-1.6-4-5.5-2.5-8.1c2.1-3.7,4.5-4.5,8.2-2.6c4.9,2.6,9.8,5.4,14.7,8.1
	c18.2,10.1,36.2,20.6,54.6,30.2c14,7.3,28.5,13.5,42.9,19.8c5.8,2.5,13.8,0.4,16.6-3.8c4.9-7.5,6-13.2,0.9-19.6
	c-3-3.8-7.4-6.7-11.2-9.9c-10.2-8.5-20.2-17.4-30.8-25.4c-14-10.5-28.2-20.8-42.9-30.2c-21.5-13.8-43.6-26.7-65.5-39.9
	c-1-0.6-2.4-1-3.5-0.8c-7.1,1.1-13.7,3.9-19.1,8.6c-9.9,8.6-19.3,17.9-29.1,26.6c-6.8,6-14.3,11-23.2,13.7
	c-12.6,3.8-25.6-1.6-31.6-13.2c-5.1-9.9-3.7-19.6,1-28.9c5-10.2,12-19.1,19.7-27.4c2.4-2.6,4.7-5.4,7.5-8.7
	c-16.5,0.2-31.6-1.5-43.4-13.9c-8.7,8.6-15.8,17.9-22.5,27.7c-10.5,15.2-19.1,31.3-26.3,48.3c-4.3,10.1-8.1,20.4-12,30.7
	c-0.4,0.9-0.4,2.6,0.1,3.2c4.6,5.2,9.3,10.3,14,15.3c2-2.4,4.6-5.1,6.8-8c10.7-14.1,30.3-15.9,43.3-3.4c3.5,3.4,5.8,8,8.7,12.1
	c10-12,22.4-19.6,38.5-11.2c14.9,7.8,18.1,21.3,14,37.1c12.4,0.5,21.1,6.4,26.2,17.3c5.2,11,3.3,21.3-3.2,31.2
	C231.9,263.6,234.7,264.2,237.7,264.8z M413.2,195.2c1.8-1,3.2-1.8,4.6-2.5c11.5-6.2,21.6-14.2,29.7-24.5c0.6-0.8,1-2.3,0.7-3.2
	c-7.9-21.2-16.7-42-28.4-61.5c-8.9-14.8-18.8-28.8-31.3-40.9c-1.1-1.1-3.3-1.7-4.9-1.6c-5.5,0.5-10.9,1.6-16.4,2
	c-13.7,1-27.1-0.9-40.4-4c-18.3-4.2-36.7-6.1-55.4-4.3c-11.9,1.1-23.8,2.2-35.6,3.9c-12.1,1.7-23.3,5.9-31.7,15.5
	c-3.7,4.2-7.8,8-11.4,12.3c-7.4,8.9-14.9,17.7-21.6,27.1c-3.7,5.3-6.3,11.5-5.1,18.5c1.5,8.2,9.9,13.4,16.5,11.8
	c5-1.2,10.1-3.6,14-6.9c10.4-8.5,20.3-17.7,30-26.9c8.4-7.9,18-13.5,29.3-16.1c4.4-1,8.9-1.7,12.8,2c1.3,1.2,3.1,1.9,4.7,2.8
	c13.3,7.8,26.8,15.3,39.8,23.5c15.2,9.5,30.3,19.3,45.1,29.5c10.3,7.1,20,15.1,29.8,22.8C396.5,181.4,404.8,188.4,413.2,195.2z
	 M463.3,170.8c1.4-0.6,2.5-0.9,3.4-1.5c15.6-9.3,31.1-18.6,46.7-27.7c2.4-1.4,2.9-2.8,2-5.2c-3.5-9.1-6.6-18.4-10.5-27.3
	c-5.2-12-10.2-24.2-16.7-35.6c-6.7-11.8-14.6-22.9-22.9-33.7c-6.7-8.7-14.7-16.4-22.2-24.5c-1.4-1.5-3-1.6-4.9-0.5
	c-7.6,4.7-15.3,9.3-23,13.8c-9,5.4-18.1,10.7-27.3,16.2C425.7,79.2,446.6,123.6,463.3,170.8z M12.9,139.3
	c18,10.7,35.1,20.9,53.1,31.7c9.3-23.1,17.9-46.3,30.1-67.7c12.4-21.7,27.1-41.5,45.8-58.4c-17-10.1-33.5-19.8-49.9-29.8
	c-3.1-1.9-4.7-0.3-6.6,1.4c-11.2,10.7-21.3,22.3-30,35.1C46.3,65,38,79,31.7,94C25.4,109,19.3,124,12.9,139.3z M116.2,261.2
	c0.3,1.6,0.5,3.1,0.8,4.7c1.4,8.4,12.4,13.7,22.1,10.6c6.4-2,9.4-7.7,13.3-12.3c6.2-7.4,12-15.2,18-22.8c7.3-9.4,15-18.5,21.9-28.2
	c4-5.6,4.5-12.4,0.5-18.4c-7.8-11.9-18.2-11-27.4-1.6c-6.9,7.1-12.6,15.4-18.8,23.1c-7.5,9.4-15,18.8-22.4,28.3
	C120.5,249.6,115.8,254.1,116.2,261.2z M222.2,245.4c0-8.5-4.6-15.1-11.1-17.5c-8.1-3-15.6,1.5-19.8,7.2c-5.2,7-10.9,13.6-16.3,20.4
	c-5.6,7-11.4,13.8-16.5,21.2c-6.1,8.7-4.9,19.3,3,23.9c9.2,5.4,17.9,4.3,23.6-2.7c10.6-12.9,20.8-26.1,31.1-39.2
	C219.2,254.5,223,250.7,222.2,245.4z M141.2,198.1c0-8.4-4.2-14.2-11.7-16.6c-7.4-2.3-14.5,0.3-19.2,6.5
	c-4.4,5.8-9.1,11.3-13.7,16.9c-4,5-7.9,10-7.2,17.1c0.5,5.9,5,11.9,11.2,14c6.9,2.4,13.7,0.8,17.7-4c5.1-6.1,10.4-12.1,15.3-18.5
	C137.1,208.9,141.8,204.6,141.2,198.1z M247.5,271c9.7,11.5,10.7,23.7,3.8,37.2c1.8,0.6,3.4,1.3,5.2,1.8c9.2,2.3,18.4,4.8,27.8,6.5
	c6.6,1.2,13.5,1.5,20.3,1.6c6.9,0.1,12.8-5.5,13.6-12.4c0.2-2.1,0.1-3.3-2.8-4.1c-19.1-5.4-37.4-12.8-54.6-23.1
	C256.4,275.9,252,273.5,247.5,271z M243.2,291.7c0.7-6.4-4.4-12.9-9.7-15.1c-6.5-2.7-14-1.5-18.7,3.7c-4.9,5.5-9.1,11.5-13.8,17.2
	c-3.5,4.2-4.3,8.9-2.8,14c3.3,11.8,17.8,16.4,26.6,8.7c4.7-4.1,8.1-9.7,12.4-14.3C241.1,301.9,243.4,297.4,243.2,291.7z"/>
<g>
	<linearGradient id="SVGID_1_" gradientUnits="userSpaceOnUse" x1="80.015" y1="179.5267" x2="416.5888" y2="179.5267">
		<stop  offset="0" style="stop-color:#88EBDC"/>
		<stop  offset="0.2479" style="stop-color:#89E8DD"/>
		<stop  offset="0.4275" style="stop-color:#8CDFE0"/>
		<stop  offset="0.5856" style="stop-color:#91CFE5"/>
		<stop  offset="0.7312" style="stop-color:#98B9EB"/>
		<stop  offset="0.8671" style="stop-color:#A19CF4"/>
		<stop  offset="0.9963" style="stop-color:#AC79FF"/>
		<stop  offset="1" style="stop-color:#AC78FF"/>
	</linearGradient>
	<path class="st1" d="M237.7,264.8c-3.1-0.6-5.8-1.1-9.1-1.8c6.5-9.8,8.4-20.2,3.2-31.2c-5.2-10.9-13.8-16.8-26.2-17.3
		c4.1-15.8,0.9-29.2-14-37.1c-16.1-8.4-28.5-0.8-38.5,11.2c-2.9-4.1-5.2-8.7-8.7-12.1c-13-12.5-32.6-10.7-43.3,3.4
		c-2.2,2.9-4.8,5.6-6.8,8c-4.7-5.1-9.4-10.1-14-15.3c-0.6-0.6-0.5-2.3-0.1-3.2c3.9-10.3,7.7-20.6,12-30.7
		c7.2-16.9,15.8-33.1,26.3-48.3c6.7-9.7,13.9-19.1,22.5-27.7c11.8,12.4,26.8,14.1,43.4,13.9c-2.8,3.3-5,6.1-7.5,8.7
		c-7.8,8.3-14.7,17.3-19.7,27.4c-4.6,9.3-6.1,19-1,28.9c6,11.6,19,17,31.6,13.2c8.9-2.7,16.4-7.6,23.2-13.7
		c9.8-8.7,19.2-18,29.1-26.6c5.4-4.7,12-7.5,19.1-8.6c1.1-0.2,2.5,0.2,3.5,0.8c21.9,13.2,44,26.1,65.5,39.9
		c14.7,9.4,28.9,19.7,42.9,30.2c10.6,8,20.6,16.8,30.8,25.4c3.8,3.2,8.1,6.1,11.2,9.9c5,6.4,4,12.1-0.9,19.6
		c-2.7,4.2-10.8,6.3-16.6,3.8c-14.4-6.3-28.9-12.6-42.9-19.8c-18.5-9.6-36.4-20.1-54.6-30.2c-4.9-2.7-9.8-5.5-14.7-8.1
		c-3.7-2-6.1-1.2-8.2,2.6c-1.5,2.6-0.3,6.6,2.5,8.1c21.6,12.1,43,24.4,64.8,36.1c13.5,7.2,27.5,13.4,41.3,19.9
		c3.6,1.7,5.6,6.6,4.4,11.7c-1.7,7.5-9.6,14.2-17.2,14.2c-2.2,0-4.6-0.7-6.7-1.5c-8.5-3.3-17-6.6-25.3-10.4
		c-14.6-6.7-29.2-13.3-43.4-20.7c-12.7-6.6-24.9-14.1-37.2-21.5c-3.4-2.1-6.4-0.8-8.2,1.7c-2.1,2.8-1.9,5.5,1.3,8
		c4.4,3.3,8.9,6.5,13.7,9.1c14.8,8.2,29.5,16.6,44.6,24c12.8,6.2,26.3,11.2,39.5,16.5c2.4,0.9,3,2.3,3.1,4.4
		c0.5,10.3-9.6,20.4-22.2,15.2c-7.1-2.9-14.2-5.6-21.5-8c-19-6.4-36.9-14.9-53.7-25.8c-3-1.9-6.2-3.4-9.1-5.5
		c-2.6-1.9-5-2.4-7.7-0.4c-2.8,2.1-2.3,4.9-1.6,7.7C237,263.4,237.4,263.9,237.7,264.8z"/>
	<linearGradient id="SVGID_2_" gradientUnits="userSpaceOnUse" x1="165.5574" y1="124.7198" x2="448.2308" y2="124.7198">
		<stop  offset="0" style="stop-color:#88EBDC"/>
		<stop  offset="0.2479" style="stop-color:#89E8DD"/>
		<stop  offset="0.4275" style="stop-color:#8CDFE0"/>
		<stop  offset="0.5856" style="stop-color:#91CFE5"/>
		<stop  offset="0.7312" style="stop-color:#98B9EB"/>
		<stop  offset="0.8671" style="stop-color:#A19CF4"/>
		<stop  offset="0.9963" style="stop-color:#AC79FF"/>
		<stop  offset="1" style="stop-color:#AC78FF"/>
	</linearGradient>
	<path class="st2" d="M413.2,195.2c-8.4-6.8-16.7-13.8-25.1-20.5c-9.8-7.8-19.5-15.7-29.8-22.8c-14.8-10.2-29.9-20-45.1-29.5
		c-13.1-8.2-26.5-15.7-39.8-23.5c-1.6-0.9-3.4-1.6-4.7-2.8c-3.9-3.6-8.4-3-12.8-2c-11.2,2.6-20.8,8.1-29.3,16.1
		c-9.8,9.2-19.7,18.3-30,26.9c-3.9,3.2-9,5.7-14,6.9c-6.6,1.6-15.1-3.6-16.5-11.8c-1.3-7.1,1.3-13.3,5.1-18.5
		c6.7-9.4,14.2-18.2,21.6-27.1c3.6-4.3,7.7-8.1,11.4-12.3c8.4-9.6,19.6-13.8,31.7-15.5c11.8-1.7,23.7-2.8,35.6-3.9
		c18.7-1.8,37.1,0,55.4,4.3c13.3,3.1,26.7,5,40.4,4c5.5-0.4,10.9-1.6,16.4-2c1.6-0.1,3.8,0.5,4.9,1.6c12.5,12.1,22.4,26.1,31.3,40.9
		c11.7,19.4,20.6,40.2,28.4,61.5c0.3,0.9,0,2.4-0.7,3.2c-8.1,10.3-18.2,18.3-29.7,24.5C416.3,193.5,415,194.2,413.2,195.2z"/>
	<linearGradient id="SVGID_3_" gradientUnits="userSpaceOnUse" x1="387.9851" y1="92.3998" x2="515.7633" y2="92.3998">
		<stop  offset="0" style="stop-color:#88EBDC"/>
		<stop  offset="0.2479" style="stop-color:#89E8DD"/>
		<stop  offset="0.4275" style="stop-color:#8CDFE0"/>
		<stop  offset="0.5856" style="stop-color:#91CFE5"/>
		<stop  offset="0.7312" style="stop-color:#98B9EB"/>
		<stop  offset="0.8671" style="stop-color:#A19CF4"/>
		<stop  offset="0.9963" style="stop-color:#AC79FF"/>
		<stop  offset="1" style="stop-color:#AC78FF"/>
	</linearGradient>
	<path class="st3" d="M463.3,170.8c-16.7-47.2-37.6-91.6-75.3-126c9.2-5.4,18.2-10.8,27.3-16.2c7.7-4.6,15.3-9.2,23-13.8
		c1.9-1.1,3.5-1.1,4.9,0.5c7.5,8.1,15.5,15.8,22.2,24.5c8.3,10.8,16.2,21.9,22.9,33.7c6.5,11.3,11.5,23.5,16.7,35.6
		c3.9,8.9,7,18.2,10.5,27.3c0.9,2.4,0.5,3.8-2,5.2c-15.6,9.1-31.1,18.5-46.7,27.7C465.7,169.9,464.7,170.2,463.3,170.8z"/>
	<linearGradient id="SVGID_4_" gradientUnits="userSpaceOnUse" x1="12.9449" y1="92.5637" x2="142.0167" y2="92.5637">
		<stop  offset="0" style="stop-color:#88EBDC"/>
		<stop  offset="0.2479" style="stop-color:#89E8DD"/>
		<stop  offset="0.4275" style="stop-color:#8CDFE0"/>
		<stop  offset="0.5856" style="stop-color:#91CFE5"/>
		<stop  offset="0.7312" style="stop-color:#98B9EB"/>
		<stop  offset="0.8671" style="stop-color:#A19CF4"/>
		<stop  offset="0.9963" style="stop-color:#AC79FF"/>
		<stop  offset="1" style="stop-color:#AC78FF"/>
	</linearGradient>
	<path class="st4" d="M12.9,139.3C19.3,124,25.4,109,31.7,94C38,79,46.3,65,55.6,51.6c8.8-12.8,18.8-24.5,30-35.1
		c1.8-1.7,3.5-3.3,6.6-1.4c16.4,10,32.9,19.7,49.9,29.8c-18.7,16.9-33.4,36.7-45.8,58.4c-12.3,21.4-20.8,44.6-30.1,67.7
		C48,160.2,30.9,150,12.9,139.3z"/>
	<linearGradient id="SVGID_5_" gradientUnits="userSpaceOnUse" x1="116.1545" y1="231.7593" x2="195.5336" y2="231.7593">
		<stop  offset="0" style="stop-color:#88EBDC"/>
		<stop  offset="0.2479" style="stop-color:#89E8DD"/>
		<stop  offset="0.4275" style="stop-color:#8CDFE0"/>
		<stop  offset="0.5856" style="stop-color:#91CFE5"/>
		<stop  offset="0.7312" style="stop-color:#98B9EB"/>
		<stop  offset="0.8671" style="stop-color:#A19CF4"/>
		<stop  offset="0.9963" style="stop-color:#AC79FF"/>
		<stop  offset="1" style="stop-color:#AC78FF"/>
	</linearGradient>
	<path class="st5" d="M116.2,261.2c-0.4-7.1,4.3-11.6,8.1-16.5c7.4-9.5,14.9-18.9,22.4-28.3c6.2-7.8,11.9-16,18.8-23.1
		c9.1-9.4,19.5-10.3,27.4,1.6c3.9,6,3.5,12.8-0.5,18.4c-6.9,9.7-14.6,18.8-21.9,28.2c-6,7.6-11.8,15.4-18,22.8
		c-3.9,4.6-6.9,10.3-13.3,12.3c-9.7,3.1-20.7-2.2-22.1-10.6C116.7,264.4,116.4,262.8,116.2,261.2z"/>
	<linearGradient id="SVGID_6_" gradientUnits="userSpaceOnUse" x1="154.6189" y1="265.4108" x2="222.2885" y2="265.4108">
		<stop  offset="0" style="stop-color:#88EBDC"/>
		<stop  offset="0.2479" style="stop-color:#89E8DD"/>
		<stop  offset="0.4275" style="stop-color:#8CDFE0"/>
		<stop  offset="0.5856" style="stop-color:#91CFE5"/>
		<stop  offset="0.7312" style="stop-color:#98B9EB"/>
		<stop  offset="0.8671" style="stop-color:#A19CF4"/>
		<stop  offset="0.9963" style="stop-color:#AC79FF"/>
		<stop  offset="1" style="stop-color:#AC78FF"/>
	</linearGradient>
	<path class="st6" d="M222.2,245.4c0.8,5.3-2.9,9.1-6.1,13.2c-10.2,13.2-20.5,26.3-31.1,39.2c-5.7,7-14.4,8.1-23.6,2.7
		c-7.9-4.6-9.1-15.2-3-23.9c5.1-7.3,11-14.2,16.5-21.2c5.4-6.8,11.1-13.4,16.3-20.4c4.2-5.7,11.7-10.2,19.8-7.2
		C217.6,230.3,222.2,236.9,222.2,245.4z"/>
	<linearGradient id="SVGID_7_" gradientUnits="userSpaceOnUse" x1="89.2898" y1="208.9131" x2="141.231" y2="208.9131">
		<stop  offset="0" style="stop-color:#88EBDC"/>
		<stop  offset="0.2479" style="stop-color:#89E8DD"/>
		<stop  offset="0.4275" style="stop-color:#8CDFE0"/>
		<stop  offset="0.5856" style="stop-color:#91CFE5"/>
		<stop  offset="0.7312" style="stop-color:#98B9EB"/>
		<stop  offset="0.8671" style="stop-color:#A19CF4"/>
		<stop  offset="0.9963" style="stop-color:#AC79FF"/>
		<stop  offset="1" style="stop-color:#AC78FF"/>
	</linearGradient>
	<path class="st7" d="M141.2,198.1c0.6,6.5-4,10.8-7.6,15.5c-4.9,6.3-10.2,12.3-15.3,18.5c-4,4.8-10.8,6.3-17.7,4
		c-6.2-2.1-10.7-8.1-11.2-14c-0.6-7.1,3.2-12.1,7.2-17.1c4.5-5.7,9.3-11.1,13.7-16.9c4.7-6.2,11.8-8.8,19.2-6.5
		C137,183.9,141.2,189.7,141.2,198.1z"/>
	<linearGradient id="SVGID_8_" gradientUnits="userSpaceOnUse" x1="247.5329" y1="294.5443" x2="318.2131" y2="294.5443">
		<stop  offset="0" style="stop-color:#88EBDC"/>
		<stop  offset="0.2479" style="stop-color:#89E8DD"/>
		<stop  offset="0.4275" style="stop-color:#8CDFE0"/>
		<stop  offset="0.5856" style="stop-color:#91CFE5"/>
		<stop  offset="0.7312" style="stop-color:#98B9EB"/>
		<stop  offset="0.8671" style="stop-color:#A19CF4"/>
		<stop  offset="0.9963" style="stop-color:#AC79FF"/>
		<stop  offset="1" style="stop-color:#AC78FF"/>
	</linearGradient>
	<path class="st8" d="M247.5,271c4.4,2.5,8.9,4.9,13.2,7.5c17.1,10.2,35.4,17.7,54.6,23.1c2.8,0.8,3,2.1,2.8,4.1
		c-0.8,6.9-6.7,12.6-13.6,12.4c-6.8-0.1-13.6-0.4-20.3-1.6c-9.3-1.7-18.5-4.3-27.8-6.5c-1.7-0.4-3.4-1.2-5.2-1.8
		C258.2,294.7,257.3,282.5,247.5,271z"/>
	<linearGradient id="SVGID_9_" gradientUnits="userSpaceOnUse" x1="197.5451" y1="299.6264" x2="243.248" y2="299.6264">
		<stop  offset="0" style="stop-color:#88EBDC"/>
		<stop  offset="0.2479" style="stop-color:#89E8DD"/>
		<stop  offset="0.4275" style="stop-color:#8CDFE0"/>
		<stop  offset="0.5856" style="stop-color:#91CFE5"/>
		<stop  offset="0.7312" style="stop-color:#98B9EB"/>
		<stop  offset="0.8671" style="stop-color:#A19CF4"/>
		<stop  offset="0.9963" style="stop-color:#AC79FF"/>
		<stop  offset="1" style="stop-color:#AC78FF"/>
	</linearGradient>
	<path class="st9" d="M243.2,291.7c0.2,5.8-2.1,10.2-6,14.2c-4.4,4.6-7.7,10.2-12.4,14.3c-8.8,7.7-23.2,3.2-26.6-8.7
		c-1.4-5.2-0.7-9.8,2.8-14c4.7-5.7,8.9-11.7,13.8-17.2c4.6-5.2,12.2-6.4,18.7-3.7C238.7,278.8,243.9,285.3,243.2,291.7z"/>
</g>
</svg>
