<svg id="Calque_1" data-name="Calque 1" xmlns="http://www.w3.org/2000/svg" viewBox="0 0 529.77 336.27"><defs><style>.cls-1{fill:#fff;}</style></defs><title>vr-vibes-hands-logo</title><path d="M365.12,281.57c-2.48,21.19-19.3,29.53-33.53,26.44-3,4.87-5.49,9.73-8.73,14a19.74,19.74,0,0,1-15.66,8.1,157.91,157.91,0,0,1-61.24-11,27.69,27.69,0,0,0-2.75-.73c-1.74,2-3.7,4.07-5.42,6.3C231,333.5,221.9,337.32,211.25,336c-12-1.46-20.48-8.17-24.37-20-.33-1-.77-2-1.16-3-16.7,8.3-42.89-1.28-43.31-24.4-11.56,2.41-22.25,1.29-30.83-7.88s-9.27-19.74-5.86-30.21c-5.12-1.88-10.36-3-14.72-5.59A27.93,27.93,0,0,1,77.4,224.42c-1.3-8.35.89-15.69,6-22.26,1.61-2.07,2-4,.36-6.32-2.31-3.15-4.32-6.55-6.81-9.54-.69-.82-2.64-.69-4-.81-2.21-.19-4.86.52-6.59-.45-11.72-6.61-23.25-13.54-34.83-20.4-8.73-5.18-17.4-10.47-26.17-15.59C0,145.94-1.1,143.9,1,138.33c5.15-13.71,10.28-27.44,15.84-41A266.52,266.52,0,0,1,47.42,41.77C52,35.41,57.09,29.37,62.2,23.39c3.79-4.44,7.88-8.62,12-12.77,3.05-3.08,6.26-6,9.58-8.81a6.91,6.91,0,0,1,8.54-.63c20.23,11.93,40.44,23.91,60.74,35.71,7.86,4.57,6.3,10.62.52,13.74-1.27.68-2.19,2-3.28,3.05,4.85,7.07,12.19,9.37,19.93,10.15s15.39.73,23.09.77a7.3,7.3,0,0,0,4.82-1.88c8.58-8.91,19.43-13.27,31.22-15.16,12.48-2,25.08-3.49,37.68-4.5,10.28-.82,20.72-1.53,30.95-.63,13,1.15,25.9,3.91,38.81,6.11,10.21,1.74,20.35,3.93,30.81,2,2.12-.4,4.39-.06,7.29-.06-2.37-3.18-5.07-6-2.63-9.28a20.28,20.28,0,0,1,6-5c12.92-7.72,25.93-15.29,38.88-22.95,6.93-4.1,13.66-8.57,20.82-12.21,2-1,6.22-.75,7.73.69,9.14,8.71,18,17.71,26.56,27,12.83,14,22.64,30.28,30.92,47.23,7.87,16.11,14.24,33,21.13,49.54,1.82,4.39,3.13,9,4.62,13.51,1.56,4.77,1,6.74-3.17,9.27-12.05,7.25-24.21,14.33-36.3,21.51q-11.52,6.85-23,13.82c-6.6,4-9.27,3.55-12.93-2.11l-29.85,23.18c12.68,18.34-.41,43.81-23,44.76.32,9.77-2.47,18.48-10.08,25C383.34,280.78,374.85,283.62,365.12,281.57ZM237.73,264.75a16.09,16.09,0,0,1-.85-2c-.74-2.82-1.25-5.61,1.57-7.72s5.07-1.55,7.72.39c2.85,2.09,6.12,3.59,9.09,5.51A236.52,236.52,0,0,0,309,286.77q10.87,3.64,21.49,8c12.6,5.23,22.7-4.92,22.16-15.17a4.3,4.3,0,0,0-3.09-4.35C336.28,270,322.84,265,310,258.8c-15.19-7.38-29.87-15.82-44.65-24a112.18,112.18,0,0,1-13.75-9.15c-3.2-2.46-3.37-5.2-1.29-8,1.84-2.46,4.76-3.75,8.21-1.67,12.25,7.4,24.49,14.87,37.17,21.47,14.21,7.4,28.82,14.05,43.39,20.72,8.3,3.8,16.85,7,25.34,10.39a18.77,18.77,0,0,0,6.73,1.52c7.62,0,15.49-6.72,17.21-14.24,1.16-5.08-.84-10-4.41-11.68-13.83-6.54-27.87-12.72-41.35-19.92-21.81-11.66-43.24-24-64.83-36.09-2.79-1.56-4-5.5-2.53-8.13,2.1-3.73,4.52-4.54,8.22-2.56,4.95,2.64,9.85,5.37,14.75,8.09,18.2,10.11,36.18,20.64,54.64,30.23,14,7.25,28.46,13.51,42.89,19.81,5.79,2.53,13.83.39,16.57-3.8,4.94-7.53,6-13.24.95-19.61-3-3.85-7.35-6.71-11.18-9.91-10.21-8.52-20.16-17.4-30.79-25.37-14-10.49-28.21-20.78-42.95-30.19C306.82,133,284.75,120,262.86,106.83a5.68,5.68,0,0,0-3.5-.8,37.55,37.55,0,0,0-19.12,8.63c-9.91,8.64-19.29,17.88-29.1,26.63-6.79,6-14.26,11-23.19,13.69a26.49,26.49,0,0,1-31.58-13.21c-5.13-9.9-3.68-19.6,1-28.93,5-10.17,12-19.12,19.73-27.42,2.45-2.62,4.67-5.44,7.45-8.7-16.54.18-31.59-1.52-43.35-13.9-8.67,8.58-15.82,17.94-22.54,27.65a268.79,268.79,0,0,0-26.33,48.25c-4.28,10.11-8.08,20.43-12,30.69-.36.94-.44,2.56.12,3.2,4.57,5.21,9.32,10.27,14,15.33,2-2.38,4.56-5.07,6.78-8,10.72-14.07,30.33-15.88,43.29-3.36,3.51,3.39,5.83,8,8.71,12.08,10-12,22.41-19.61,38.48-11.17,14.89,7.82,18.09,21.28,14,37.05,12.42.51,21.06,6.37,26.22,17.31s3.26,21.34-3.23,31.15Zm175.43-69.52c1.8-1,3.18-1.77,4.58-2.52a92.9,92.9,0,0,0,29.72-24.5,3.89,3.89,0,0,0,.65-3.15c-7.85-21.24-16.71-42-28.42-61.47-8.9-14.79-18.83-28.83-31.29-40.89a7,7,0,0,0-4.91-1.6c-5.49.46-10.93,1.63-16.42,2-13.67,1-27.13-.92-40.39-4C308.39,54.91,290,53.1,271.25,54.9c-11.88,1.14-23.77,2.24-35.58,3.89C223.53,60.5,212.4,64.67,204,74.26c-3.69,4.19-7.84,8-11.41,12.28-7.39,8.88-14.94,17.67-21.61,27.08-3.73,5.26-6.31,11.48-5.05,18.54,1.46,8.21,9.93,13.41,16.54,11.79a36.11,36.11,0,0,0,14-6.88c10.36-8.54,20.26-17.66,30-26.87,8.42-7.93,18-13.51,29.26-16.06,4.39-1,8.94-1.66,12.82,2,1.3,1.22,3.15,1.86,4.73,2.78,13.29,7.8,26.76,15.32,39.82,23.48,15.24,9.52,30.33,19.3,45.1,29.53,10.28,7.11,20,15.06,29.82,22.82C396.5,181.43,404.79,188.39,413.16,195.23Zm50.1-24.44a32.51,32.51,0,0,0,3.4-1.49c15.56-9.26,31.06-18.61,46.69-27.74,2.45-1.43,2.89-2.84,2-5.21-3.5-9.1-6.64-18.36-10.52-27.3C499.6,97,494.58,84.83,488.1,73.5A299.86,299.86,0,0,0,465.22,39.8c-6.7-8.71-14.7-16.42-22.16-24.54-1.42-1.54-3-1.62-4.87-.48-7.62,4.67-15.28,9.26-23,13.83-9,5.38-18.07,10.71-27.26,16.15C425.67,79.18,446.59,123.6,463.26,170.79ZM12.94,139.26l53.13,31.67c9.31-23.15,17.88-46.26,30.14-67.7,12.4-21.68,27.14-41.5,45.81-58.35-17-10.1-33.49-19.83-49.86-29.82-3.07-1.87-4.74-.34-6.56,1.38a218.49,218.49,0,0,0-30,35.12C46.34,65,38,79,31.67,94S19.27,124,12.94,139.26Zm103.23,122c.26,1.56.53,3.12.79,4.68,1.36,8.39,12.36,13.7,22.07,10.62,6.45-2,9.41-7.73,13.3-12.35,6.24-7.4,12-15.19,18-22.81,7.35-9.36,15-18.48,21.92-28.16,4-5.59,4.46-12.38.52-18.36-7.83-11.91-18.21-11-27.35-1.56-6.9,7.1-12.62,15.36-18.81,23.14q-11.23,14.11-22.36,28.3C120.48,249.63,115.77,254.15,116.18,261.23Zm106-15.83c0-8.55-4.57-15.12-11.09-17.53-8.1-3-15.59,1.5-19.76,7.17-5.16,7-10.87,13.62-16.3,20.45-5.57,7-11.39,13.84-16.52,21.16-6.1,8.71-4.95,19.26,3,23.88,9.18,5.37,17.86,4.27,23.59-2.73,10.57-12.9,20.82-26.07,31.07-39.24C219.23,254.55,223,250.66,222.17,245.4Zm-81-47.28c0-8.4-4.19-14.19-11.73-16.57-7.39-2.33-14.5.26-19.16,6.45-4.36,5.79-9.15,11.25-13.68,16.91-4,5-7.87,10-7.24,17.12a17.09,17.09,0,0,0,11.21,14c6.9,2.37,13.65.84,17.66-4,5.12-6.14,10.45-12.12,15.31-18.46C137.13,208.91,141.82,204.6,141.17,198.12ZM247.53,271c9.74,11.49,10.7,23.75,3.77,37.22,1.78.62,3.44,1.35,5.17,1.77,9.24,2.26,18.43,4.83,27.77,6.52a128.37,128.37,0,0,0,20.29,1.63c6.89.14,12.79-5.55,13.6-12.45.24-2.05.05-3.35-2.78-4.14a223.29,223.29,0,0,1-54.57-23.05C256.42,275.88,252,273.47,247.53,271Zm-4.35,20.71c.69-6.38-4.44-12.9-9.7-15.07-6.48-2.67-14-1.54-18.66,3.69-4.86,5.5-9.1,11.55-13.77,17.23a14.56,14.56,0,0,0-2.82,14c3.32,11.84,17.77,16.36,26.56,8.65,4.7-4.13,8.07-9.74,12.44-14.31C241.1,301.87,243.38,297.44,243.18,291.68Z"/><path class="cls-1" d="M237.73,264.75,228.66,263c6.48-9.81,8.4-20.19,3.23-31.15s-13.8-16.8-26.22-17.31c4.09-15.77.89-29.23-14-37.05-16.08-8.44-28.46-.84-38.48,11.17-2.88-4.07-5.2-8.69-8.71-12.08-13-12.51-32.57-10.71-43.29,3.36-2.22,2.92-4.75,5.61-6.78,8-4.66-5.06-9.41-10.12-14-15.33-.56-.63-.48-2.25-.12-3.2,3.91-10.26,7.7-20.58,12-30.69a268.79,268.79,0,0,1,26.33-48.25c6.72-9.71,13.87-19.07,22.54-27.65C152.92,75.19,168,76.9,184.51,76.71c-2.78,3.26-5,6.08-7.45,8.7-7.76,8.3-14.69,17.25-19.73,27.42-4.63,9.34-6.08,19-1,28.93A26.49,26.49,0,0,0,187.95,155c8.93-2.66,16.4-7.64,23.19-13.69,9.82-8.74,19.19-18,29.1-26.63A37.55,37.55,0,0,1,259.36,106a5.68,5.68,0,0,1,3.5.8c21.88,13.22,44,26.13,65.5,39.89,14.73,9.41,28.95,19.7,42.95,30.19,10.63,8,20.58,16.85,30.79,25.37,3.83,3.2,8.14,6.06,11.18,9.91,5,6.38,4,12.08-.95,19.61-2.74,4.18-10.78,6.32-16.57,3.8-14.43-6.3-28.93-12.55-42.89-19.81-18.47-9.59-36.45-20.12-54.64-30.23-4.9-2.72-9.8-5.45-14.75-8.09-3.7-2-6.12-1.16-8.22,2.56-1.48,2.63-.26,6.57,2.53,8.13,21.59,12.07,43,24.43,64.83,36.09,13.48,7.21,27.52,13.38,41.35,19.92,3.56,1.68,5.57,6.59,4.41,11.68-1.72,7.53-9.59,14.21-17.21,14.24a18.77,18.77,0,0,1-6.73-1.52c-8.5-3.35-17-6.6-25.34-10.39-14.58-6.67-29.18-13.32-43.39-20.72C283,230.84,270.78,223.37,258.52,216c-3.45-2.08-6.36-.79-8.21,1.67-2.08,2.78-1.91,5.52,1.29,8a112.18,112.18,0,0,0,13.75,9.15c14.78,8.2,29.46,16.64,44.65,24,12.83,6.23,26.27,11.23,39.55,16.5a4.3,4.3,0,0,1,3.09,4.35c.55,10.25-9.55,20.4-22.16,15.17q-10.59-4.4-21.49-8A236.52,236.52,0,0,1,255.26,261c-3-1.93-6.24-3.43-9.09-5.51-2.65-1.94-5-2.41-7.72-.39s-2.31,4.9-1.57,7.72A16.09,16.09,0,0,0,237.73,264.75Z"/><path class="cls-1" d="M413.16,195.23c-8.37-6.84-16.66-13.8-25.15-20.51-9.82-7.76-19.54-15.7-29.82-22.82-14.77-10.22-29.86-20-45.1-29.53C300,114.22,286.56,106.7,273.27,98.9c-1.58-.93-3.43-1.56-4.73-2.78-3.88-3.65-8.43-3-12.82-2-11.24,2.56-20.84,8.13-29.26,16.06-9.78,9.21-19.69,18.32-30,26.87a36.11,36.11,0,0,1-14,6.88c-6.61,1.62-15.08-3.57-16.54-11.79-1.26-7.06,1.32-13.28,5.05-18.54,6.67-9.41,14.22-18.2,21.61-27.08,3.57-4.29,7.72-8.09,11.41-12.28,8.44-9.59,19.58-13.76,31.72-15.46,11.81-1.66,23.7-2.75,35.58-3.89,18.71-1.8,37.14,0,55.43,4.25,13.25,3.07,26.71,5,40.39,4,5.49-.42,10.93-1.58,16.42-2a7,7,0,0,1,4.91,1.6c12.46,12.06,22.38,26.1,31.29,40.89,11.71,19.45,20.57,40.23,28.42,61.47a3.89,3.89,0,0,1-.65,3.15,92.9,92.9,0,0,1-29.72,24.5C416.34,193.46,415,194.24,413.16,195.23Z"/><path class="cls-1" d="M463.26,170.79c-16.66-47.19-37.58-91.61-75.27-126,9.19-5.44,18.24-10.77,27.26-16.15,7.67-4.57,15.34-9.16,23-13.83,1.86-1.14,3.45-1.07,4.87.48,7.46,8.12,15.46,15.83,22.16,24.54A299.86,299.86,0,0,1,488.1,73.5c6.48,11.34,11.5,23.54,16.71,35.55,3.88,8.94,7,18.19,10.52,27.3.91,2.37.47,3.78-2,5.21-15.63,9.13-31.13,18.49-46.69,27.74A32.51,32.51,0,0,1,463.26,170.79Z"/><path class="cls-1" d="M12.94,139.26C19.27,124,25.39,109,31.67,94S46.34,65,55.55,51.56a218.49,218.49,0,0,1,30-35.12c1.82-1.73,3.49-3.26,6.56-1.38,16.37,10,32.9,19.71,49.86,29.82-18.66,16.85-33.41,36.67-45.81,58.35C84,124.67,75.38,147.78,66.07,170.93Z"/><path class="cls-1" d="M116.18,261.23c-.41-7.09,4.3-11.6,8.11-16.49q11.09-14.22,22.36-28.3c6.2-7.78,11.91-16,18.81-23.14,9.14-9.4,19.52-10.35,27.35,1.56,3.93,6,3.46,12.77-.52,18.36-6.89,9.68-14.57,18.8-21.92,28.16-6,7.62-11.78,15.4-18,22.81-3.89,4.61-6.86,10.3-13.3,12.35-9.72,3.08-20.71-2.23-22.07-10.62C116.71,264.35,116.44,262.79,116.18,261.23Z"/><path class="cls-1" d="M222.17,245.4c.84,5.26-2.94,9.14-6.05,13.15-10.24,13.17-20.5,26.33-31.07,39.24-5.73,7-14.41,8.1-23.59,2.73-7.9-4.62-9.05-15.17-3-23.88,5.13-7.32,11-14.15,16.52-21.16,5.42-6.83,11.13-13.43,16.3-20.45,4.17-5.67,11.66-10.17,19.76-7.17C217.6,230.29,222.17,236.86,222.17,245.4Z"/><path class="cls-1" d="M141.17,198.12c.65,6.47-4,10.79-7.63,15.46-4.86,6.34-10.19,12.32-15.31,18.46-4,4.81-10.76,6.34-17.66,4a17.09,17.09,0,0,1-11.21-14c-.62-7.11,3.24-12.11,7.24-17.12,4.53-5.66,9.32-11.12,13.68-16.91,4.66-6.19,11.77-8.78,19.16-6.45C137,183.93,141.17,189.73,141.17,198.12Z"/><path class="cls-1" d="M247.53,271c4.42,2.5,8.89,4.91,13.25,7.51a223.29,223.29,0,0,0,54.57,23.05c2.84.79,3,2.09,2.78,4.14-.81,6.9-6.71,12.58-13.6,12.45a128.37,128.37,0,0,1-20.29-1.63c-9.35-1.69-18.53-4.26-27.77-6.52-1.73-.42-3.39-1.15-5.17-1.77C258.23,294.71,257.27,282.46,247.53,271Z"/><path class="cls-1" d="M243.18,291.68c.19,5.76-2.09,10.19-6,14.23-4.37,4.56-7.73,10.18-12.44,14.31-8.78,7.71-23.23,3.19-26.56-8.65a14.56,14.56,0,0,1,2.82-14c4.67-5.68,8.91-11.73,13.77-17.23,4.63-5.23,12.18-6.36,18.66-3.69C238.75,278.78,243.88,285.3,243.18,291.68Z"/></svg>