<svg width="635" height="143" viewBox="0 0 635 143" fill="none" xmlns="http://www.w3.org/2000/svg">
<path d="M415.394 56.1324C429.856 30.4572 455.397 33.7781 463.038 34.4856C471.861 21.4606 490.986 8.34049 521.244 16.5504C538.997 21.3708 547.615 34.4856 548.186 51.6816C565.583 39.6597 586.94 51.6816 588.99 68.2177C593.975 108.423 543.513 104.495 543.513 104.495H425.159C425.159 104.495 374.565 105.619 381.713 72.1088C385.414 54.7597 403.875 49.8865 415.394 56.1324Z" fill="white" stroke="black" stroke-width="3" stroke-miterlimit="10"/>
<path d="M461.647 35.8793C461.647 35.8793 461.671 35.8846 461.725 35.8899C461.778 35.9005 461.861 35.911 461.974 35.9269C462.193 35.9585 462.525 36.0166 462.96 36.0905C463.829 36.2489 465.103 36.4971 466.72 36.8878C468.331 37.2785 470.284 37.817 472.476 38.5667C473.575 38.9416 474.732 39.3692 475.933 39.8708C476.084 39.9342 476.236 39.9975 476.387 40.0609C476.465 40.0925 476.539 40.1242 476.617 40.1559C476.695 40.1876 476.768 40.2245 476.846 40.2562C476.998 40.3249 477.154 40.3935 477.305 40.4621C477.461 40.5308 477.613 40.6047 477.769 40.6733C477.847 40.7103 477.925 40.7472 478.003 40.7789L478.121 40.8317L478.169 40.8528L478.228 40.8792C478.306 40.9162 478.389 40.9584 478.467 40.9954L478.589 41.0535L478.702 41.1115C478.853 41.1854 478.999 41.2594 479.156 41.3438C479.307 41.423 479.463 41.5075 479.619 41.592C480.235 41.9299 480.855 42.3047 481.465 42.706C482.08 43.1125 482.691 43.5508 483.291 44.0259C483.594 44.2635 483.892 44.5117 484.19 44.7651C484.483 45.0238 484.78 45.2825 485.073 45.557C485.366 45.8263 485.65 46.1114 485.938 46.4018C486.221 46.6922 486.504 46.9931 486.777 47.3046C487.056 47.6109 487.324 47.9329 487.593 48.255C487.856 48.5823 488.12 48.9149 488.374 49.2634C488.501 49.4324 488.628 49.6119 488.755 49.7861C488.877 49.9603 489.004 50.1398 489.126 50.3193C489.248 50.4989 489.37 50.6836 489.487 50.8684L489.575 51.0057L489.619 51.0743L489.653 51.1324L489.741 51.2803L489.785 51.3542L489.824 51.4175L489.897 51.5495C489.922 51.5918 489.946 51.634 489.971 51.6815C490.019 51.7765 490.073 51.8663 490.122 51.9613C490.22 52.1514 490.312 52.3415 490.405 52.5368C490.586 52.9275 490.747 53.3341 490.898 53.7512C491.191 54.5854 491.426 55.4565 491.592 56.3593C491.924 58.165 492.016 60.071 491.865 61.9875C491.714 63.8988 491.333 65.8206 490.669 67.6262C490.503 68.075 490.317 68.5185 490.112 68.9462C489.907 69.3738 489.683 69.7909 489.438 70.1922C489.194 70.5934 488.926 70.9683 488.633 71.322C488.32 71.6969 488.008 72.0506 487.676 72.3991C486.358 73.7982 484.854 75.0073 483.218 75.9576C481.582 76.908 479.82 77.6049 477.998 78.0167C477.09 78.2226 476.167 78.3599 475.245 78.4285C474.322 78.4972 473.394 78.4972 472.471 78.4338C470.631 78.3018 468.814 77.9111 467.105 77.2723C465.396 76.6334 463.78 75.7464 462.374 74.6113C461.671 74.0464 461.022 73.4181 460.445 72.7317C459.869 72.0453 459.371 71.3009 458.976 70.5037C458.58 69.7064 458.292 68.867 458.136 68.0064C458.097 67.7899 458.063 67.5734 458.043 67.357C458.029 67.2461 458.024 67.1405 458.014 67.0296C458.009 66.9293 457.999 66.8026 457.994 66.697C457.985 66.4805 457.98 66.2588 457.985 66.0423C457.989 65.8258 457.994 65.6041 458.009 65.3876C458.063 64.5218 458.204 63.6717 458.429 62.8639C458.654 62.0561 458.966 61.2853 459.342 60.5725C459.718 59.8598 460.167 59.2051 460.66 58.619C461.153 58.033 461.695 57.5103 462.272 57.0563C463.419 56.1534 464.679 55.5357 465.929 55.1714C467.183 54.8071 468.429 54.6962 469.586 54.7649C470.748 54.8282 471.822 55.0711 472.784 55.3984C473.746 55.7258 474.6 56.1376 475.337 56.5652C476.08 56.9929 476.709 57.4364 477.242 57.8482C477.774 58.26 478.204 58.6402 478.545 58.9569C478.887 59.2737 479.141 59.5324 479.312 59.7014C479.478 59.8756 479.566 59.9654 479.566 59.9654C479.566 59.9654 479.483 59.8703 479.317 59.6961C479.151 59.5166 478.902 59.2579 478.565 58.9305C478.228 58.6032 477.803 58.2125 477.281 57.7849C476.758 57.3572 476.133 56.8979 475.396 56.4438C474.659 55.995 473.809 55.5568 472.838 55.2031C471.871 54.8493 470.782 54.5801 469.595 54.4798C468.414 54.3847 467.135 54.4639 465.836 54.8071C464.537 55.1503 463.219 55.7522 462.008 56.6656C461.402 57.1196 460.826 57.6529 460.294 58.2547C459.767 58.8566 459.283 59.5324 458.868 60.2716C458.453 61.0108 458.112 61.8133 457.853 62.6633C457.594 63.5133 457.423 64.4109 457.35 65.3296C457.33 65.5566 457.321 65.7889 457.311 66.0212C457.306 66.2535 457.301 66.4858 457.311 66.7234C457.316 66.9504 457.325 67.188 457.345 67.4256C457.365 67.6632 457.394 67.9008 457.433 68.1384C457.584 69.0834 457.877 70.0127 458.287 70.8838C458.693 71.755 459.215 72.5733 459.816 73.3283C460.416 74.078 461.09 74.7644 461.822 75.3874C463.287 76.6281 464.967 77.6049 466.754 78.3282C468.541 79.0515 470.44 79.5109 472.383 79.7062C473.355 79.8012 474.337 79.8276 475.318 79.7801C476.299 79.7326 477.286 79.6112 478.257 79.4211C480.205 79.0357 482.115 78.3388 483.897 77.362C485.679 76.3853 487.329 75.1234 488.784 73.6557C489.145 73.2914 489.507 72.9059 489.844 72.5152C490.2 72.1034 490.522 71.6652 490.82 71.2164C491.113 70.7624 491.382 70.2925 491.626 69.8173C491.87 69.3368 492.085 68.8458 492.285 68.3495C492.681 67.357 492.993 66.3327 493.232 65.3032C493.471 64.2736 493.642 63.2282 493.75 62.1828C493.96 60.0921 493.911 57.996 493.584 55.9581C493.418 54.9391 493.183 53.9412 492.866 52.9698C492.705 52.484 492.529 52.0089 492.329 51.5442C492.226 51.3119 492.124 51.0796 492.012 50.8579C491.958 50.7417 491.899 50.6308 491.841 50.52C491.811 50.4672 491.782 50.4091 491.748 50.351L491.655 50.1768L491.606 50.0923L491.562 50.0184L491.474 49.8706L491.421 49.7808L491.372 49.7069L491.279 49.5538C491.157 49.3479 491.03 49.1525 490.903 48.9519C490.776 48.7513 490.644 48.5559 490.518 48.3606C490.386 48.1652 490.254 47.9752 490.117 47.7851C489.849 47.4049 489.57 47.0354 489.292 46.6711C489.009 46.312 488.726 45.9583 488.433 45.6151C488.14 45.2719 487.842 44.9393 487.544 44.6173C487.241 44.2952 486.939 43.9784 486.626 43.6775C486.318 43.3712 486.001 43.0809 485.684 42.7905C485.366 42.5054 485.049 42.2256 484.722 41.9616C484.077 41.4283 483.423 40.932 482.764 40.4727C482.105 40.0134 481.441 39.591 480.777 39.2056C480.611 39.1052 480.445 39.0155 480.279 38.9205C480.118 38.8254 479.942 38.7357 479.776 38.6459L479.649 38.5773L479.532 38.5139C479.453 38.4717 479.375 38.4347 479.292 38.3925L479.234 38.3608L479.165 38.3238L479.043 38.2658C478.96 38.2235 478.882 38.1866 478.799 38.1443C478.638 38.0651 478.477 37.9859 478.316 37.912C478.155 37.8381 477.998 37.7589 477.837 37.685C477.759 37.648 477.681 37.6111 477.598 37.5741C477.52 37.5372 477.442 37.5002 477.364 37.4685C477.207 37.3999 477.051 37.326 476.895 37.2573C475.65 36.703 474.454 36.2278 473.321 35.8054C471.055 34.966 469.044 34.3588 467.379 33.91C465.714 33.4612 464.386 33.1656 463.478 32.9808C463.023 32.8857 462.672 32.8224 462.428 32.7802C462.306 32.759 462.213 32.7432 462.149 32.7326C462.086 32.7221 462.052 32.7168 462.052 32.7168L461.647 35.8793Z" fill="black"/>
<path d="M547.449 50.3091C547.449 50.3091 547.429 50.3249 547.385 50.3513C547.346 50.3777 547.288 50.4147 547.215 50.4675C547.068 50.5678 546.853 50.7156 546.58 50.9162C546.038 51.3122 545.261 51.9088 544.324 52.7272C543.387 53.5455 542.278 54.5909 541.111 55.9056C540.525 56.5603 539.93 57.2889 539.334 58.0914C538.738 58.8939 538.147 59.7703 537.591 60.7312C537.034 61.6921 536.512 62.7375 536.058 63.8727C535.609 65.0078 535.233 66.2274 534.974 67.5209C534.72 68.8145 534.588 70.1713 534.617 71.5599C534.642 72.9485 534.827 74.3529 535.164 75.7309C535.33 76.4225 535.54 77.1036 535.775 77.7741C535.897 78.112 536.019 78.4394 536.16 78.7773C536.219 78.9251 536.302 79.1099 536.375 79.2788C536.453 79.4425 536.526 79.6115 536.609 79.7751C536.932 80.4298 537.308 81.0634 537.732 81.6653C538.157 82.2619 538.631 82.8321 539.148 83.3442C539.666 83.8616 540.232 84.3262 540.828 84.7381C541.424 85.1499 542.058 85.4983 542.708 85.7887C544.016 86.3695 545.398 86.7074 546.79 86.8341C548.181 86.9608 549.573 86.8816 550.925 86.6335C552.278 86.3853 553.596 85.9682 554.841 85.4033C556.086 84.8384 557.263 84.1256 558.327 83.265C559.392 82.4097 560.339 81.4013 561.101 80.2609C561.862 79.1257 562.419 77.8428 562.692 76.5123C562.761 76.1797 562.81 75.847 562.844 75.5144C562.854 75.4299 562.858 75.3455 562.863 75.2663C562.868 75.1818 562.873 75.0973 562.878 75.0181L562.883 74.8914V74.8597V74.8228V74.7647C562.883 74.6855 562.883 74.6063 562.888 74.5271C562.893 73.8671 562.844 73.223 562.751 72.5947C562.707 72.278 562.644 71.9717 562.575 71.6655C562.502 71.3593 562.424 71.0636 562.326 70.768C562.302 70.694 562.277 70.6201 562.253 70.5515C562.229 70.4776 562.199 70.4089 562.175 70.335L562.136 70.2294L562.092 70.1238C562.063 70.0552 562.033 69.9813 562.009 69.9126C561.887 69.6381 561.765 69.3688 561.623 69.1101C561.486 68.8514 561.335 68.6033 561.179 68.3604C561.018 68.1228 560.852 67.8905 560.676 67.674C560.5 67.4523 560.315 67.2517 560.129 67.0563C559.939 66.8662 559.743 66.6762 559.543 66.5072C558.737 65.8209 557.854 65.3404 556.97 65.0289C556.086 64.7227 555.212 64.5907 554.392 64.5854C553.982 64.5801 553.586 64.6118 553.205 64.6593C552.825 64.7068 552.463 64.7808 552.122 64.8705C552.078 64.8811 552.034 64.8916 551.995 64.9022C551.951 64.9128 551.912 64.9286 551.868 64.9392C551.785 64.9656 551.702 64.9867 551.619 65.0131C551.458 65.0659 551.296 65.1187 551.145 65.1767C550.837 65.2876 550.554 65.4143 550.286 65.541C549.753 65.7945 549.295 66.069 548.909 66.3224C548.718 66.4544 548.538 66.5706 548.381 66.692C548.22 66.8082 548.084 66.919 547.957 67.0194C547.708 67.22 547.517 67.3784 547.395 67.4893C547.273 67.6001 547.205 67.6582 547.205 67.6582C547.205 67.6582 547.268 67.6054 547.4 67.4998C547.527 67.3942 547.717 67.2411 547.976 67.051C548.103 66.956 548.25 66.8504 548.411 66.7448C548.572 66.6339 548.753 66.5231 548.948 66.4016C549.338 66.164 549.802 65.9106 550.335 65.6783C550.603 65.5674 550.886 65.4513 551.194 65.351C551.345 65.2982 551.501 65.2559 551.663 65.2084C551.741 65.1873 551.824 65.1662 551.907 65.1451C551.946 65.1345 551.99 65.1239 552.034 65.1134C552.078 65.1028 552.117 65.0975 552.161 65.087C552.498 65.0131 552.854 64.955 553.23 64.9233C553.601 64.8916 553.987 64.8758 554.382 64.8969C555.178 64.9339 556.018 65.0923 556.853 65.4196C557.683 65.747 558.513 66.238 559.25 66.9138C559.436 67.0827 559.611 67.2622 559.787 67.4523C559.958 67.6424 560.124 67.843 560.28 68.0542C560.442 68.2601 560.588 68.4871 560.73 68.7141C560.866 68.9465 561.003 69.184 561.12 69.4322C561.242 69.6803 561.355 69.9338 561.457 70.1977C561.482 70.2664 561.506 70.3297 561.53 70.3984L561.569 70.4987L561.604 70.599C561.628 70.6676 561.648 70.7363 561.672 70.7996C561.691 70.8683 561.711 70.9369 561.731 71.0055C561.814 71.2801 561.877 71.5652 561.936 71.8503C561.989 72.1354 562.038 72.4258 562.072 72.7214C562.141 73.3075 562.165 73.9199 562.141 74.5218C562.136 74.601 562.136 74.6802 562.131 74.7594L562.126 74.8175C562.126 74.8333 562.126 74.8281 562.126 74.8386V74.865L562.116 74.9759C562.111 75.0498 562.102 75.129 562.097 75.2029C562.092 75.2768 562.082 75.356 562.072 75.4299C562.033 75.7309 561.98 76.0318 561.906 76.3275C561.623 77.5154 561.081 78.6558 560.354 79.6695C559.626 80.6832 558.718 81.5808 557.707 82.3358C556.697 83.0961 555.578 83.7191 554.402 84.1995C553.225 84.68 551.99 85.0232 550.73 85.2027C549.475 85.3875 548.196 85.4086 546.946 85.2449C545.696 85.0865 544.475 84.7381 543.357 84.189C542.234 83.6452 541.219 82.8902 540.364 81.9821C539.939 81.528 539.549 81.0317 539.207 80.509C538.865 79.981 538.558 79.432 538.299 78.8565C538.23 78.7139 538.172 78.5661 538.108 78.4235C538.05 78.281 537.996 78.149 537.938 77.9853L537.894 77.8639L537.884 77.8322C537.874 77.8111 537.884 77.8269 537.879 77.8164L537.859 77.7583L537.781 77.5313C537.728 77.3782 537.679 77.225 537.63 77.0719C537.435 76.4595 537.269 75.847 537.142 75.2293C536.883 73.9991 536.761 72.769 536.775 71.5652C536.79 70.3667 536.937 69.1946 537.195 68.0859C537.449 66.9771 537.811 65.9265 538.24 64.9444C538.665 63.9624 539.163 63.049 539.686 62.2095C540.735 60.5253 541.907 59.1209 543.015 57.9541C544.124 56.7873 545.174 55.8633 546.062 55.14C546.951 54.4167 547.683 53.894 548.176 53.5561C548.425 53.3872 548.616 53.2657 548.743 53.1812C548.806 53.1443 548.85 53.1126 548.884 53.0968C548.914 53.0809 548.928 53.0704 548.928 53.0704L547.449 50.3091Z" fill="black"/>
<path d="M219.232 56.1953C204.806 31.7005 179.33 34.8688 171.709 35.5437C162.908 23.1176 143.832 10.6007 113.651 18.4332C95.9434 23.0319 87.3475 35.5437 86.7777 51.9491C69.4253 40.48 48.1232 51.9491 46.0777 67.7249C41.1053 106.081 91.4385 102.334 91.4385 102.334H209.491C209.491 102.334 259.956 103.407 252.826 71.4371C249.134 54.8857 230.72 50.2366 219.232 56.1953Z" fill="white" stroke="black" stroke-width="3" stroke-miterlimit="10"/>
<path d="M173.097 36.8736C173.097 36.8736 173.072 36.8786 173.019 36.8837C172.965 36.8937 172.882 36.9038 172.77 36.9189C172.551 36.9491 172.22 37.0045 171.786 37.0751C170.92 37.2262 169.648 37.4629 168.036 37.8356C166.429 38.2084 164.481 38.7222 162.295 39.4374C161.199 39.795 160.044 40.203 158.846 40.6815C158.695 40.742 158.544 40.8024 158.394 40.8629C158.316 40.8931 158.243 40.9233 158.165 40.9535C158.087 40.9837 158.014 41.019 157.936 41.0492C157.785 41.1147 157.629 41.1802 157.478 41.2457C157.322 41.3112 157.171 41.3817 157.015 41.4471C156.937 41.4824 156.859 41.5177 156.781 41.5479L156.665 41.5983L156.616 41.6184L156.557 41.6436C156.48 41.6788 156.397 41.7191 156.319 41.7544L156.197 41.8098L156.085 41.8652C155.934 41.9357 155.788 42.0063 155.632 42.0868C155.481 42.1624 155.325 42.243 155.169 42.3236C154.556 42.6459 153.937 43.0036 153.329 43.3864C152.715 43.7742 152.106 44.1923 151.507 44.6456C151.205 44.8723 150.908 45.109 150.611 45.3508C150.319 45.5976 150.022 45.8444 149.729 46.1063C149.437 46.3632 149.155 46.6352 148.867 46.9123C148.585 47.1893 148.303 47.4764 148.03 47.7736C147.752 48.0657 147.484 48.373 147.216 48.6802C146.953 48.9925 146.69 49.3099 146.437 49.6423C146.311 49.8035 146.184 49.9747 146.057 50.1409C145.936 50.3072 145.809 50.4784 145.687 50.6497C145.565 50.8209 145.444 50.9972 145.327 51.1735L145.239 51.3045L145.195 51.37L145.161 51.4254L145.074 51.5664L145.03 51.6369L144.991 51.6974L144.918 51.8233C144.893 51.8636 144.869 51.9039 144.845 51.9492C144.796 52.0399 144.742 52.1255 144.694 52.2162C144.596 52.3975 144.504 52.5788 144.411 52.7652C144.231 53.1379 144.07 53.5258 143.919 53.9237C143.627 54.7195 143.393 55.5506 143.228 56.412C142.897 58.1346 142.804 59.953 142.955 61.7814C143.106 63.6048 143.486 65.4382 144.148 67.1608C144.314 67.589 144.499 68.0121 144.703 68.4201C144.908 68.8281 145.132 69.226 145.376 69.6088C145.619 69.9916 145.887 70.3492 146.179 70.6867C146.491 71.0443 146.803 71.3818 147.134 71.7143C148.449 73.0491 149.949 74.2025 151.58 75.1092C153.212 76.0158 154.97 76.6807 156.786 77.0736C157.692 77.27 158.613 77.401 159.533 77.4665C160.454 77.532 161.379 77.532 162.299 77.4715C164.135 77.3456 165.947 76.9729 167.652 76.3634C169.356 75.7539 170.968 74.9077 172.371 73.8248C173.072 73.2858 173.72 72.6864 174.295 72.0316C174.869 71.3768 175.366 70.6666 175.761 69.906C176.155 69.1454 176.442 68.3445 176.598 67.5235C176.637 67.317 176.671 67.1105 176.691 66.904C176.705 66.7982 176.71 66.6974 176.72 66.5917C176.725 66.496 176.735 66.3751 176.739 66.2743C176.749 66.0678 176.754 65.8563 176.749 65.6498C176.744 65.4432 176.739 65.2317 176.725 65.0252C176.671 64.1991 176.53 63.3882 176.306 62.6175C176.082 61.8469 175.77 61.1115 175.395 60.4315C175.02 59.7515 174.572 59.1269 174.08 58.5678C173.588 58.0087 173.048 57.51 172.473 57.0768C171.329 56.2155 170.072 55.6262 168.825 55.2787C167.574 54.9311 166.332 54.8253 165.178 54.8908C164.019 54.9512 162.947 55.1829 161.988 55.4952C161.028 55.8075 160.176 56.2004 159.441 56.6084C158.7 57.0164 158.072 57.4395 157.541 57.8324C157.01 58.2253 156.582 58.5879 156.241 58.8902C155.9 59.1924 155.647 59.4392 155.476 59.6004C155.311 59.7666 155.223 59.8522 155.223 59.8522C155.223 59.8522 155.306 59.7615 155.471 59.5953C155.637 59.4241 155.885 59.1773 156.221 58.865C156.557 58.5527 156.981 58.1799 157.502 57.7719C158.023 57.364 158.647 56.9257 159.382 56.4926C160.118 56.0644 160.965 55.6464 161.934 55.3089C162.898 54.9714 163.984 54.7145 165.168 54.6188C166.346 54.5281 167.622 54.6037 168.918 54.9311C170.213 55.2585 171.528 55.8327 172.736 56.7041C173.34 57.1373 173.915 57.646 174.446 58.2202C174.972 58.7945 175.454 59.4392 175.868 60.1444C176.282 60.8495 176.623 61.6152 176.881 62.4261C177.139 63.2371 177.309 64.0933 177.382 64.9698C177.402 65.1864 177.411 65.408 177.421 65.6296C177.426 65.8512 177.431 66.0729 177.421 66.2995C177.416 66.5161 177.407 66.7428 177.387 66.9694C177.368 67.1961 177.338 67.4228 177.299 67.6494C177.149 68.5511 176.856 69.4376 176.447 70.2687C176.043 71.0998 175.522 71.8805 174.923 72.6008C174.324 73.316 173.652 73.9708 172.921 74.5652C171.46 75.7489 169.785 76.6807 168.002 77.3708C166.22 78.0608 164.325 78.4991 162.387 78.6854C161.418 78.7761 160.439 78.8013 159.46 78.7559C158.481 78.7106 157.497 78.5948 156.528 78.4134C154.585 78.0457 152.681 77.3808 150.903 76.449C149.126 75.5172 147.479 74.3133 146.028 72.9131C145.668 72.5655 145.307 72.1978 144.971 71.8251C144.616 71.4322 144.294 71.0141 143.997 70.586C143.705 70.1528 143.437 69.7045 143.194 69.2512C142.95 68.7928 142.736 68.3244 142.536 67.8509C142.142 66.904 141.83 65.9268 141.591 64.9446C141.353 63.9624 141.182 62.9651 141.075 61.9677C140.866 59.9731 140.914 57.9734 141.241 56.0292C141.406 55.057 141.64 54.105 141.957 53.1782C142.117 52.7148 142.293 52.2615 142.492 51.8183C142.595 51.5966 142.697 51.375 142.809 51.1635C142.863 51.0526 142.921 50.9469 142.979 50.8411C143.009 50.7907 143.038 50.7353 143.072 50.6799L143.164 50.5137L143.213 50.4331L143.257 50.3626L143.345 50.2215L143.398 50.1359L143.447 50.0654L143.54 49.9193C143.661 49.7229 143.788 49.5365 143.915 49.3451C144.041 49.1537 144.173 48.9673 144.299 48.781C144.431 48.5946 144.562 48.4133 144.699 48.2319C144.966 47.8693 145.244 47.5167 145.522 47.1691C145.804 46.8266 146.087 46.4891 146.379 46.1617C146.671 45.8343 146.968 45.517 147.265 45.2098C147.567 44.9025 147.869 44.6003 148.181 44.3132C148.488 44.021 148.804 43.744 149.121 43.467C149.437 43.195 149.754 42.928 150.08 42.6762C150.723 42.1674 151.376 41.694 152.033 41.2557C152.691 40.8175 153.353 40.4146 154.015 40.0469C154.181 39.9512 154.346 39.8655 154.512 39.7749C154.673 39.6842 154.848 39.5986 155.014 39.513L155.14 39.4475L155.257 39.387C155.335 39.3467 155.413 39.3115 155.496 39.2712L155.554 39.241L155.622 39.2057L155.744 39.1503C155.827 39.11 155.905 39.0747 155.988 39.0344C156.148 38.9589 156.309 38.8833 156.47 38.8128C156.631 38.7423 156.786 38.6667 156.947 38.5962C157.025 38.561 157.103 38.5257 157.186 38.4905C157.264 38.4552 157.342 38.4199 157.419 38.3897C157.575 38.3242 157.731 38.2537 157.887 38.1882C159.129 37.6594 160.322 37.206 161.452 36.8031C163.712 36.0022 165.718 35.4229 167.379 34.9948C169.04 34.5667 170.364 34.2846 171.27 34.1083C171.723 34.0176 172.074 33.9572 172.317 33.9169C172.439 33.8967 172.532 33.8816 172.595 33.8716C172.658 33.8615 172.692 33.8564 172.692 33.8564L173.097 36.8736Z" fill="black"/>
<path d="M87.5131 50.6396C87.5131 50.6396 87.5326 50.6548 87.5765 50.6799C87.6154 50.7051 87.6739 50.7404 87.7469 50.7908C87.893 50.8865 88.1073 51.0275 88.38 51.2189C88.9206 51.5967 89.695 52.1658 90.63 52.9466C91.5651 53.7273 92.6706 54.7246 93.8346 55.9788C94.419 56.6034 95.0132 57.2985 95.6074 58.0641C96.2015 58.8297 96.7908 59.6659 97.346 60.5826C97.9012 61.4993 98.4223 62.4967 98.8752 63.5796C99.3233 64.6626 99.6983 65.8261 99.9564 67.0601C100.21 68.2942 100.341 69.5887 100.312 70.9134C100.288 72.2381 100.103 73.578 99.7665 74.8926C99.6009 75.5525 99.3915 76.2022 99.1577 76.8419C99.036 77.1643 98.9142 77.4766 98.773 77.799C98.7145 77.94 98.6317 78.1163 98.5587 78.2775C98.4808 78.4336 98.4077 78.5948 98.3249 78.7509C98.0035 79.3755 97.6285 79.98 97.2048 80.5542C96.7811 81.1234 96.3087 81.6673 95.7924 82.1559C95.2762 82.6496 94.7112 83.0928 94.1171 83.4857C93.5229 83.8786 92.8898 84.211 92.2421 84.488C90.9369 85.0421 89.5586 85.3645 88.1706 85.4854C86.7826 85.6063 85.3946 85.5307 84.0456 85.294C82.6965 85.0572 81.3816 84.6593 80.1397 84.1203C78.8978 83.5814 77.7241 82.9014 76.6624 82.0804C75.6007 81.2644 74.6559 80.3023 73.8962 79.2143C73.1364 78.1314 72.5812 76.9074 72.3085 75.6381C72.2403 75.3208 72.1916 75.0034 72.1575 74.6861C72.1478 74.6055 72.1429 74.5249 72.138 74.4494C72.1332 74.3688 72.1283 74.2882 72.1234 74.2126L72.1185 74.0918V74.0615V74.0263V73.9709C72.1185 73.8953 72.1185 73.8198 72.1137 73.7442C72.1088 73.1146 72.1575 72.5001 72.25 71.9007C72.2939 71.5985 72.3572 71.3063 72.4254 71.0142C72.4984 70.722 72.5763 70.44 72.6737 70.1579C72.6981 70.0874 72.7224 70.0168 72.7468 69.9514C72.7711 69.8808 72.8004 69.8154 72.8247 69.7449L72.8637 69.6441L72.9075 69.5434C72.9367 69.4779 72.966 69.4074 72.9903 69.3419C73.1121 69.08 73.2338 68.8231 73.375 68.5763C73.5114 68.3295 73.6624 68.0927 73.8182 67.861C73.9789 67.6344 74.1445 67.4127 74.3199 67.2062C74.4952 66.9947 74.6803 66.8033 74.8653 66.6169C75.0553 66.4356 75.2501 66.2542 75.4497 66.0931C76.2533 65.4382 77.1348 64.9799 78.0163 64.6827C78.8978 64.3906 79.7696 64.2646 80.5878 64.2596C80.9969 64.2546 81.3913 64.2848 81.7712 64.3301C82.1511 64.3754 82.5115 64.446 82.8524 64.5316C82.8962 64.5417 82.9401 64.5517 82.979 64.5618C83.0228 64.5719 83.0618 64.587 83.1056 64.5971C83.1884 64.6223 83.2712 64.6424 83.354 64.6676C83.5147 64.718 83.6754 64.7683 83.8264 64.8237C84.1332 64.9295 84.4157 65.0504 84.6836 65.1713C85.2144 65.4131 85.6722 65.675 86.057 65.9168C86.2469 66.0427 86.4271 66.1535 86.5829 66.2693C86.7437 66.3802 86.88 66.4859 87.0066 66.5816C87.255 66.773 87.445 66.9242 87.5667 67.0299C87.6885 67.1357 87.7566 67.1911 87.7566 67.1911C87.7566 67.1911 87.6933 67.1407 87.5618 67.04C87.4352 66.9393 87.2453 66.7932 86.9872 66.6119C86.8605 66.5212 86.7144 66.4205 86.5537 66.3197C86.393 66.2139 86.2128 66.1082 86.018 65.9923C85.6284 65.7657 85.1657 65.5239 84.6349 65.3022C84.367 65.1965 84.0845 65.0857 83.7777 64.99C83.6267 64.9396 83.4709 64.8993 83.3102 64.854C83.2323 64.8338 83.1495 64.8137 83.0667 64.7935C83.0277 64.7834 82.9839 64.7734 82.9401 64.7633C82.8962 64.7532 82.8573 64.7482 82.8134 64.7381C82.4774 64.6676 82.1219 64.6122 81.7469 64.582C81.3767 64.5517 80.992 64.5366 80.5975 64.5568C79.8037 64.592 78.966 64.7431 78.1332 65.0554C77.3053 65.3677 76.4773 65.8362 75.7419 66.4809C75.5569 66.6421 75.3816 66.8133 75.2062 66.9947C75.0358 67.176 74.8702 67.3674 74.7143 67.5689C74.5536 67.7653 74.4075 67.9819 74.2663 68.1985C74.1299 68.4201 73.9936 68.6468 73.8767 68.8835C73.7549 69.1203 73.6429 69.362 73.5406 69.6139C73.5163 69.6794 73.4919 69.7398 73.4676 69.8053L73.4286 69.901L73.3945 69.9967C73.3702 70.0622 73.3507 70.1277 73.3263 70.1881C73.3069 70.2536 73.2874 70.3191 73.2679 70.3845C73.1851 70.6465 73.1218 70.9185 73.0634 71.1905C73.0098 71.4625 72.9611 71.7395 72.927 72.0216C72.8588 72.5807 72.8345 73.165 72.8588 73.7392C72.8637 73.8147 72.8637 73.8903 72.8686 73.9658L72.8734 74.0212C72.8734 74.0363 72.8734 74.0313 72.8734 74.0414V74.0666L72.8832 74.1723C72.888 74.2429 72.8978 74.3184 72.9026 74.3889C72.9075 74.4594 72.9173 74.535 72.927 74.6055C72.966 74.8926 73.0195 75.1797 73.0926 75.4618C73.375 76.5951 73.9156 77.6831 74.6413 78.6502C75.3669 79.6173 76.2728 80.4736 77.2809 81.1939C78.289 81.9192 79.4043 82.5136 80.578 82.9719C81.7517 83.4303 82.9839 83.7577 84.2404 83.9289C85.492 84.1052 86.768 84.1254 88.0148 83.9692C89.2615 83.8181 90.4791 83.4857 91.5943 82.9618C92.7145 82.443 93.7275 81.7228 94.5798 80.8564C95.0035 80.4232 95.3931 79.9497 95.734 79.4511C96.0749 78.9474 96.3817 78.4235 96.6398 77.8745C96.708 77.7385 96.7665 77.5975 96.8298 77.4615C96.8882 77.3255 96.9418 77.1996 97.0002 77.0434L97.0441 76.9276L97.0538 76.8973C97.0635 76.8772 97.0538 76.8923 97.0587 76.8822L97.0781 76.8268L97.1561 76.6102C97.2096 76.4642 97.2583 76.3181 97.307 76.172C97.5019 75.5877 97.6674 75.0034 97.7941 74.4141C98.0522 73.2405 98.1739 72.0669 98.1593 70.9185C98.1447 69.7751 97.9986 68.6569 97.7405 67.5991C97.4872 66.5413 97.1268 65.539 96.6983 64.6021C96.2746 63.6652 95.7778 62.7938 95.2567 61.993C94.2096 60.3862 93.0408 59.0463 91.9353 57.9332C90.8297 56.82 89.7826 55.9385 88.8963 55.2485C88.0099 54.5584 87.2794 54.0597 86.7875 53.7374C86.5391 53.5762 86.3492 53.4603 86.2225 53.3798C86.1592 53.3445 86.1154 53.3143 86.0813 53.2992C86.0521 53.2841 86.0375 53.274 86.0375 53.274L87.5131 50.6396Z" fill="black"/>
<path d="M385.865 48.098C372.926 18.6274 345.663 17.4802 328.525 20.1455C318.362 9.38406 297.581 -3.69799 261.516 5.32727C228.049 13.7026 228.51 35.6529 231.826 48.1155C204.643 43.5003 181.102 57.6249 181.698 79.2481C182.619 112.754 239.032 109.613 239.032 109.613H375.286C375.286 109.613 425.005 112.867 425.314 77.5468C425.51 54.4188 400.946 49.0795 385.865 48.098Z" fill="white" stroke="black" stroke-width="3" stroke-miterlimit="10"/>
<path d="M328.525 20.1455C328.525 20.1455 318.975 22.0038 309.908 26.1783C304.686 28.5819 300.414 32.0629 297.643 36.2549C293.95 41.8471 296.541 50.3402 301.707 53.8038C316.456 63.684 337.794 55.505 337.204 46.6062C336.614 37.7075 321.858 30.9025 312.921 38.5232" fill="white"/>
<path d="M328.941 21.4149C328.941 21.4149 328.913 21.4193 328.851 21.4324C328.789 21.4455 328.699 21.4629 328.575 21.4847C328.328 21.5327 327.957 21.6112 327.474 21.7159C326.507 21.9297 325.09 22.2568 323.303 22.7367C321.521 23.2165 319.368 23.8403 316.968 24.6691C315.765 25.0835 314.506 25.5459 313.196 26.0693C312.87 26.2002 312.539 26.3354 312.207 26.475C311.875 26.6146 311.538 26.7542 311.206 26.9025C311.038 26.9767 310.869 27.0508 310.701 27.125L310.65 27.1468L310.588 27.1773L310.459 27.2384C310.375 27.2776 310.285 27.3169 310.2 27.3562C310.037 27.4347 309.874 27.5088 309.711 27.5874C309.548 27.6702 309.38 27.7488 309.217 27.8316C307.896 28.499 306.58 29.2711 305.316 30.161C304.686 30.606 304.068 31.0771 303.461 31.5744C302.859 32.0716 302.28 32.5995 301.718 33.1534C301.162 33.7074 300.622 34.2876 300.116 34.8939C299.863 35.1993 299.616 35.5046 299.38 35.8231C299.256 35.9801 299.144 36.1415 299.031 36.3029C298.975 36.3858 298.919 36.4643 298.863 36.5472L298.778 36.6693L298.756 36.6999C298.767 36.6868 298.745 36.7129 298.745 36.7217L298.7 36.7871C297.862 38.039 297.362 39.4655 297.159 40.9617C296.957 42.4579 297.047 44.0239 297.401 45.5681C297.581 46.3402 297.823 47.1123 298.138 47.8669C298.452 48.6216 298.835 49.3631 299.301 50.0742C299.762 50.7852 300.302 51.4657 300.926 52.0851C301.24 52.3948 301.572 52.6915 301.926 52.9663C302.016 53.0317 302.106 53.1015 302.196 53.1669L302.331 53.2629L302.488 53.3676L302.646 53.4723L302.797 53.5682C302.899 53.6337 302.994 53.6991 303.095 53.7602C304.725 54.7984 306.547 55.6664 308.491 56.3208C309.464 56.6479 310.464 56.9227 311.487 57.1365C312.511 57.3502 313.556 57.5116 314.607 57.6119C316.709 57.817 318.845 57.7864 320.925 57.5509C321.965 57.4287 322.994 57.2586 324 57.0361C325.006 56.8137 325.984 56.5389 326.934 56.2204C328.828 55.5792 330.593 54.746 332.117 53.7427C332.499 53.4897 332.864 53.228 333.213 52.9532C333.561 52.6784 333.893 52.3948 334.202 52.0982C334.82 51.5093 335.354 50.8768 335.776 50.2138C335.99 49.8822 336.169 49.542 336.321 49.1974C336.467 48.8528 336.591 48.4994 336.675 48.1461C336.72 47.9673 336.748 47.7928 336.777 47.6139C336.799 47.4351 336.816 47.2562 336.822 47.0817C336.827 46.9945 336.827 46.9029 336.827 46.8157L336.822 46.6848V46.6499C336.822 46.6368 336.822 46.6324 336.822 46.6194L336.816 46.5496L336.805 46.4143L336.793 46.2835C336.788 46.1962 336.777 46.1046 336.765 46.0174C336.585 44.5953 336.035 43.2474 335.242 42.0435C334.449 40.8395 333.426 39.7752 332.28 38.8853C331.706 38.436 331.105 38.0347 330.481 37.6726C329.857 37.3106 329.216 36.9921 328.564 36.7129C327.26 36.159 325.928 35.7795 324.629 35.5657C323.331 35.352 322.078 35.304 320.936 35.3781C319.79 35.4567 318.756 35.6573 317.862 35.919C316.968 36.1808 316.209 36.4992 315.585 36.8089C314.956 37.123 314.461 37.4327 314.073 37.6901C313.685 37.9518 313.404 38.1699 313.219 38.3139C313.123 38.388 313.056 38.4447 313.011 38.484C312.966 38.5232 312.938 38.5407 312.938 38.5407C312.938 38.5407 312.96 38.5189 313.005 38.484C313.05 38.4447 313.118 38.388 313.208 38.3095C313.387 38.1568 313.663 37.9387 314.045 37.6683C314.427 37.3978 314.916 37.0794 315.54 36.7522C316.159 36.425 316.912 36.0935 317.811 35.81C318.711 35.5308 319.75 35.304 320.914 35.2036C322.078 35.1033 323.359 35.1295 324.691 35.3258C326.024 35.5221 327.406 35.8841 328.755 36.4294C330.104 36.9747 331.431 37.6944 332.639 38.593C333.848 39.4916 334.944 40.5691 335.804 41.8079C336.664 43.0468 337.288 44.4514 337.524 45.9476C337.535 46.0436 337.552 46.1352 337.564 46.2311L337.58 46.3751L337.592 46.5147L337.597 46.5845L337.603 46.6237V46.6586L337.614 46.8026C337.62 46.8985 337.62 46.9945 337.62 47.0948C337.62 47.2868 337.608 47.4831 337.586 47.6794C337.564 47.8757 337.535 48.0676 337.496 48.2639C337.417 48.6521 337.299 49.036 337.148 49.4155C336.996 49.795 336.81 50.1658 336.591 50.5278C336.158 51.2519 335.602 51.9412 334.967 52.5824C334.646 52.9052 334.303 53.2106 333.944 53.5115C333.584 53.8082 333.202 54.0961 332.808 54.3709C331.229 55.4701 329.396 56.3775 327.423 57.0929C326.434 57.4505 325.411 57.7559 324.36 58.0133C323.309 58.2663 322.229 58.4713 321.133 58.6196C318.941 58.9162 316.676 58.9904 314.422 58.8159C313.297 58.7287 312.173 58.5803 311.072 58.371C309.97 58.1616 308.879 57.8868 307.823 57.5552C305.709 56.8922 303.714 55.9936 301.926 54.9074C301.814 54.842 301.701 54.7678 301.589 54.7024L301.42 54.5977L301.263 54.4974L301.105 54.397L300.931 54.2793C300.819 54.2051 300.712 54.1266 300.6 54.0481C300.167 53.734 299.773 53.3981 299.402 53.0491C298.66 52.3512 298.036 51.5966 297.497 50.8157C296.957 50.0349 296.513 49.2279 296.136 48.4078C295.765 47.5878 295.468 46.7502 295.248 45.904C294.804 44.2158 294.647 42.4971 294.821 40.809C294.911 39.9627 295.085 39.1252 295.355 38.3095C295.49 37.8995 295.647 37.4981 295.833 37.1012C295.923 36.9049 296.024 36.7086 296.131 36.5123C296.181 36.4163 296.243 36.316 296.299 36.2157C296.361 36.111 296.412 36.0325 296.462 35.9409L296.502 35.8754L296.53 35.8318L296.552 35.7969L296.642 35.6617C296.699 35.5744 296.76 35.4828 296.817 35.3956C296.94 35.2211 297.053 35.0422 297.182 34.8721C297.429 34.5232 297.688 34.1873 297.946 33.8514C298.475 33.184 299.037 32.5471 299.627 31.932C300.217 31.3213 300.836 30.7368 301.471 30.1828C302.112 29.6288 302.769 29.1054 303.438 28.6125C304.787 27.6223 306.192 26.7542 307.615 25.9995C307.794 25.9079 307.969 25.812 308.149 25.7204C308.328 25.6288 308.514 25.5372 308.694 25.4499C308.778 25.4107 308.862 25.367 308.952 25.3278L309.082 25.2667L309.144 25.2362L309.222 25.2013C309.396 25.1184 309.571 25.0399 309.745 24.957C310.093 24.7956 310.436 24.6429 310.779 24.4902C311.122 24.3376 311.465 24.1936 311.797 24.0497C313.146 23.4782 314.45 22.9722 315.686 22.5229C318.16 21.62 320.369 20.9307 322.207 20.3986C324.045 19.8707 325.512 19.5 326.524 19.2557C327.03 19.1335 327.423 19.0463 327.687 18.9896C327.822 18.9591 327.923 18.9372 327.996 18.9242C328.07 18.9111 328.103 18.9023 328.103 18.9023L328.941 21.4149Z" fill="black"/>
<path d="M231.826 48.1152C231.826 48.1152 253.799 54.5101 254.979 68.6478C256.16 82.7811 226.643 85.3984 223.608 77.8083C220.573 70.2182 231.871 61.4503 240.134 66.6848" fill="white"/>
<path d="M232.422 46.894C232.422 46.894 232.45 46.9028 232.512 46.9202C232.562 46.9377 232.641 46.9638 232.748 46.9944C232.95 47.0598 233.248 47.1601 233.625 47.2954C234.378 47.5615 235.468 47.9715 236.806 48.5429C238.144 49.1144 239.746 49.8516 241.494 50.7982C242.371 51.2693 243.282 51.7971 244.215 52.3816C245.148 52.9661 246.098 53.6117 247.048 54.3228C247.52 54.6805 247.998 55.0512 248.459 55.4438C248.515 55.4918 248.577 55.5398 248.633 55.5921C248.689 55.6401 248.751 55.6925 248.807 55.7405C248.925 55.8408 249.038 55.9411 249.156 56.0414C249.268 56.1461 249.386 56.2508 249.499 56.3512C249.555 56.4035 249.617 56.4558 249.673 56.5082C249.729 56.5605 249.785 56.6172 249.841 56.6696C250.752 57.5246 251.618 58.4624 252.41 59.4744C252.804 59.9805 253.175 60.5083 253.529 61.0535C253.872 61.6032 254.198 62.1659 254.49 62.7461C254.777 63.3306 255.035 63.9282 255.255 64.5432C255.311 64.6959 255.356 64.853 255.412 65.0056C255.434 65.0842 255.463 65.1627 255.485 65.2368C255.508 65.3153 255.53 65.3939 255.552 65.4724C255.597 65.6294 255.642 65.7865 255.682 65.9435C255.721 66.1005 255.755 66.2619 255.794 66.419L255.822 66.5367L255.845 66.6589C255.862 66.7374 255.873 66.8203 255.89 66.8988C255.918 67.0602 255.952 67.2216 255.968 67.383C255.991 67.5444 256.013 67.7058 256.036 67.8716C256.053 68.033 256.064 68.1987 256.081 68.3601L256.092 68.4823L256.098 68.5433V68.5739C256.098 68.6044 256.098 68.6 256.098 68.6131L256.109 68.8487C256.115 68.9228 256.115 69.0144 256.115 69.1017C256.115 69.1889 256.12 69.2762 256.115 69.359C256.115 69.6949 256.092 70.0352 256.053 70.3754C255.901 71.7321 255.446 73.0974 254.664 74.3493C254.277 74.9775 253.81 75.5751 253.282 76.1378C253.017 76.417 252.736 76.6918 252.444 76.9535C252.152 77.2153 251.843 77.4683 251.522 77.7082C250.881 78.1924 250.196 78.6373 249.476 79.0386C248.757 79.4399 248.003 79.8064 247.228 80.1292C246.452 80.4563 245.654 80.7442 244.844 80.9972C244.035 81.2502 243.203 81.4727 242.371 81.6559C240.702 82.0311 238.993 82.271 237.284 82.3888C235.575 82.5022 233.866 82.4934 232.197 82.332C231.359 82.2492 230.533 82.1314 229.724 81.9613C228.914 81.7955 228.127 81.5774 227.374 81.3026C226.621 81.0278 225.907 80.6875 225.266 80.2731C224.631 79.8587 224.075 79.3571 223.676 78.7944C223.479 78.5108 223.316 78.2142 223.198 77.9088C223.198 77.9045 223.186 77.8827 223.186 77.8739L223.175 77.8478L223.158 77.7954L223.119 77.6907L223.08 77.586L223.063 77.5337L223.046 77.477C223.023 77.4028 223.001 77.3243 222.979 77.2502C222.967 77.2109 222.956 77.176 222.945 77.1367L222.917 77.0277C222.776 76.4344 222.709 75.8412 222.709 75.2567C222.726 74.0876 223.007 72.9622 223.479 71.9371C223.951 70.912 224.597 69.9785 225.345 69.1584C226.846 67.5226 228.763 66.3317 230.674 65.673C231.152 65.5073 231.629 65.3764 232.101 65.2717C232.22 65.2499 232.338 65.2194 232.456 65.2019C232.574 65.1801 232.692 65.1627 232.804 65.1409C232.922 65.1234 233.035 65.1103 233.147 65.0929C233.259 65.0754 233.377 65.0667 233.484 65.058C234.384 64.9707 235.221 65.0056 235.958 65.106C236.694 65.2019 237.329 65.3764 237.857 65.5553C237.925 65.5771 237.987 65.6033 238.049 65.6251C238.082 65.6381 238.11 65.6469 238.144 65.66C238.172 65.673 238.206 65.6861 238.234 65.6949C238.352 65.7428 238.464 65.7865 238.577 65.8344C238.791 65.9304 238.982 66.0177 239.145 66.1049C239.229 66.1485 239.308 66.1878 239.381 66.227C239.454 66.2663 239.516 66.3056 239.577 66.3405C239.639 66.3754 239.696 66.4059 239.746 66.4364C239.797 66.467 239.842 66.4975 239.881 66.5193C240.038 66.6196 240.123 66.672 240.123 66.672C240.123 66.672 240.038 66.624 239.875 66.528C239.836 66.5062 239.791 66.4757 239.74 66.4495C239.69 66.4233 239.628 66.3928 239.566 66.3579C239.504 66.323 239.437 66.2881 239.364 66.2488C239.291 66.2096 239.212 66.1747 239.128 66.1354C238.959 66.0525 238.762 65.974 238.549 65.8824C238.442 65.8388 238.324 65.7995 238.206 65.7516C238.178 65.7385 238.144 65.7298 238.116 65.7167C238.082 65.7079 238.054 65.6949 238.02 65.6861C237.959 65.6643 237.891 65.6425 237.824 65.6207C237.295 65.4549 236.66 65.3023 235.929 65.2194C235.204 65.1365 234.384 65.1278 233.507 65.2281C233.4 65.2412 233.288 65.2543 233.175 65.2717C233.063 65.2892 232.956 65.3066 232.843 65.3241C232.731 65.3459 232.619 65.3677 232.506 65.3895C232.394 65.4113 232.281 65.4419 232.169 65.468C231.714 65.5771 231.253 65.721 230.797 65.8912C228.965 66.576 227.155 67.7756 225.767 69.3896C225.075 70.1966 224.491 71.1083 224.08 72.0985C223.67 73.0843 223.445 74.1574 223.479 75.2523C223.496 75.7976 223.58 76.3516 223.737 76.8968L223.765 76.9972C223.777 77.032 223.788 77.0626 223.799 77.0975C223.822 77.1629 223.844 77.2283 223.867 77.2981L223.884 77.3461L223.906 77.3985L223.945 77.5032L223.985 77.6079L224.007 77.6602L224.018 77.6864C224.024 77.6951 224.018 77.6907 224.024 77.7038C224.136 77.9612 224.283 78.2055 224.457 78.441C224.817 78.9078 225.3 79.3265 225.873 79.6755C226.447 80.0288 227.099 80.3167 227.79 80.5479C228.487 80.7835 229.224 80.9623 229.977 81.1019C230.736 81.2415 231.511 81.3331 232.304 81.3898C233.883 81.5032 235.508 81.4771 237.115 81.3288C238.729 81.1804 240.336 80.91 241.899 80.5218C242.68 80.3255 243.445 80.103 244.198 79.8456C244.946 79.5926 245.676 79.3047 246.379 78.9863C247.082 78.6679 247.756 78.3189 248.397 77.935C249.038 77.5555 249.639 77.1411 250.19 76.6962C250.465 76.4737 250.73 76.2425 250.983 76.0069C251.23 75.7714 251.466 75.5227 251.691 75.2741C252.135 74.7725 252.517 74.2446 252.826 73.695C253.456 72.6001 253.793 71.4267 253.877 70.2489C253.894 69.9567 253.906 69.66 253.894 69.3678C253.894 69.2936 253.889 69.2238 253.883 69.154C253.877 69.0799 253.877 69.0188 253.866 68.9359L253.844 68.7004L253.816 68.4866C253.799 68.3383 253.776 68.19 253.759 68.0417C253.731 67.8934 253.709 67.7494 253.681 67.6011C253.658 67.4528 253.624 67.3088 253.591 67.1649C253.574 67.0907 253.557 67.0209 253.54 66.9468L253.518 66.8377L253.49 66.7287C253.45 66.5847 253.411 66.4408 253.372 66.3012C253.332 66.1572 253.282 66.0177 253.237 65.8781C253.214 65.8083 253.192 65.7385 253.169 65.6687C253.141 65.5989 253.119 65.5291 253.09 65.4593C253.04 65.3197 252.989 65.1801 252.933 65.0449C252.714 64.4953 252.455 63.9631 252.18 63.4396C251.893 62.9205 251.584 62.4189 251.252 61.9303C250.915 61.4461 250.555 60.975 250.179 60.5214C249.42 59.6184 248.594 58.7809 247.728 58.0175C247.672 57.9695 247.621 57.9215 247.565 57.8735C247.509 57.8256 247.453 57.7776 247.402 57.734C247.29 57.6423 247.183 57.5464 247.076 57.4548C246.964 57.3632 246.851 57.2716 246.744 57.1843C246.688 57.1407 246.632 57.0927 246.581 57.0491C246.525 57.0055 246.469 56.9619 246.413 56.9182C245.969 56.5649 245.513 56.2334 245.064 55.9106C244.159 55.2737 243.248 54.6892 242.354 54.1657C241.461 53.6423 240.589 53.1668 239.752 52.7437C238.077 51.8931 236.542 51.2387 235.266 50.7284C233.985 50.2224 232.956 49.8647 232.253 49.6378C231.905 49.5244 231.635 49.4415 231.455 49.3892C231.371 49.363 231.303 49.3456 231.258 49.3325C231.219 49.3194 231.196 49.315 231.196 49.315L232.422 46.894Z" fill="black"/>
</svg>
